<?xml version="1.0" encoding="UTF-8" standalone="no"?>
<svg
   xmlns:dc="http://purl.org/dc/elements/1.1/"
   xmlns:cc="http://creativecommons.org/ns#"
   xmlns:rdf="http://www.w3.org/1999/02/22-rdf-syntax-ns#"
   xmlns:svg="http://www.w3.org/2000/svg"
   xmlns="http://www.w3.org/2000/svg"
   xmlns:sodipodi="http://sodipodi.sourceforge.net/DTD/sodipodi-0.dtd"
   xmlns:inkscape="http://www.inkscape.org/namespaces/inkscape"
   id="svg2"
   version="1.1"
   width="288"
   height="144"
   inkscape:version="0.47pre1 r21720"
   sodipodi:docname="process-working__.svg"
   inkscape:output_extension="org.inkscape.output.svg.inkscape">
  <sodipodi:namedview
     pagecolor="#ffffff"
     bordercolor="#666666"
     borderopacity="1"
     objecttolerance="10"
     gridtolerance="10"
     guidetolerance="10"
     inkscape:pageopacity="0"
     inkscape:pageshadow="2"
     inkscape:window-width="1400"
     inkscape:window-height="1000"
     id="namedview21"
     showgrid="false"
     inkscape:zoom="3.34375"
     inkscape:cx="144"
     inkscape:cy="72"
     inkscape:window-x="-3"
     inkscape:window-y="0"
     inkscape:window-maximized="1"
     inkscape:current-layer="svg2" />
  <metadata
     id="metadata8">
    <RDF
       id="RDF4">
      <Work
         about=""
         id="Work6">
        <format
           id="format8">image/svg+xml</format>
        <type
           resource="http://purl.org/dc/dcmitype/StillImage"
           id="type10" />
        <title
           id="title12" />
      </Work>
    </RDF>
    <rdf:RDF>
      <cc:Work
         rdf:about="">
        <dc:format>image/svg+xml</dc:format>
        <dc:type
           rdf:resource="http://purl.org/dc/dcmitype/StillImage" />
      </cc:Work>
    </rdf:RDF>
  </metadata>
  <defs
     id="defs6">
    <inkscape:perspective
       sodipodi:type="inkscape:persp3d"
       inkscape:vp_x="0 : 72 : 1"
       inkscape:vp_y="0 : 1000 : 0"
       inkscape:vp_z="288 : 72 : 1"
       inkscape:persp3d-origin="144 : 48 : 1"
       id="perspective23" />
    <perspective
       type="inkscape:persp3d"
       vp_x="0 : 0.5 : 1"
       vp_y="0 : 1000 : 0"
       vp_z="1 : 0.5 : 1"
       persp3d-origin="0.5 : 0.33333333 : 1"
       id="perspective10" />
  </defs>
  <namedview
     pagecolor="#ffffff"
     bordercolor="#666666"
     borderopacity="1"
     objecttolerance="10"
     gridtolerance="10"
     guidetolerance="10"
     pageopacity="0"
     pageshadow="2"
     window-width="1400"
     window-height="1000"
     id="namedview4"
     showgrid="false"
     zoom="6.1875"
     cx="65.72529"
     cy="11.977431"
     window-x="-3"
     window-y="0"
     window-maximized="1"
     current-layer="svg2" />
  <path
     nodetypes="ccccccccccc"
     id="path3025"
     d="M 224.13851,123.36643 L 224.74862,126.82652 L 235.58134,126.51571 L 235.44143,123.28028 L 228.13624,117.43304 L 213.09427,105.3841 L 203.49013,102.89479 L 204.53873,107.44628 C 206.35946,110.97836 209.21189,113.81554 212.34177,116.46583 C 215.94009,119.65871 219.45667,121.57354 222.96295,123.32767 L 224.13851,123.36643 z"
     style="fill:#aaaaaa;fill-opacity:1;stroke:none" />
  <path
     style="fill:#aaaaaa;fill-opacity:1;stroke:none"
     d="M 174.78641,124.14663 L 175.69577,127.54037 L 186.46018,126.28662 L 186.03881,123.07569 L 178.2518,117.8874 L 162.21693,107.1953 L 152.43238,105.55252 L 153.87367,109.9953 C 155.99532,113.35525 159.08418,115.93302 162.43313,118.30045 C 166.29604,121.16755 169.96612,122.76861 173.61195,124.21047 L 174.78641,124.14663 z"
     id="path3027"
     nodetypes="ccccccccccc" />
  <path
     style="fill:#aaaaaa;fill-opacity:1;stroke:none"
     d="M 128.08682,125.16287 L 129.2885,128.46445 L 139.90268,126.27728 L 139.20306,123.1153 L 130.99349,118.62543 L 114.08777,109.37155 L 104.19727,108.58779 L 106.02028,112.88805 C 108.4267,116.05031 111.72847,118.34906 115.27102,120.4156 C 119.36911,122.93512 123.16477,124.21022 126.92239,125.32883 L 128.08682,125.16287 z"
     id="path3029"
     nodetypes="ccccccccccc" />
  <path
     nodetypes="ccccccccccc"
     id="path3031"
     d="M 81.043732,125.82066 L 82.528582,129.00494 L 92.911752,125.90101 L 91.939212,122.81203 L 83.369562,119.05476 L 65.721642,111.30952 L 55.800472,111.39077 L 57.991342,115.51578 C 60.664212,118.45626 64.153772,120.4585 67.862942,122.20842 C 72.165032,124.36118 76.057382,125.30061 79.898192,126.08747 L 81.043732,125.82066 z"
     style="fill:#aaaaaa;fill-opacity:1;stroke:none" />
  <path
     nodetypes="ccccccccccc"
     id="path3033"
     d="M 272.85903,122.52003 L 273.16525,126.02012 L 283.98385,126.65464 L 284.12645,123.41932 L 277.35868,116.95765 L 263.42408,103.64356 L 254.07344,100.32666 L 254.72136,104.95223 C 256.22732,108.62955 258.82163,111.70454 261.70861,114.61754 C 265.01496,118.11187 268.35126,120.32591 271.69133,122.37895 L 272.85903,122.52003 z"
     style="fill:#aaaaaa;fill-opacity:1;stroke:none" />
  <path
     nodetypes="ccccccccccc"
     id="path3023"
     d="M 33.652145,126.87216 L 35.408878,129.91491 L 45.482013,125.91784 L 44.243951,122.92537 L 35.379442,119.9293 L 17.123635,113.75165 L 7.2472969,114.69728 L 9.7893559,118.61564 C 12.70833,121.31198 16.359111,123.00247 20.206695,124.42244 C 24.680035,126.19206 28.639444,126.78868 32.534227,127.2378 L 33.652145,126.87216 z"
     style="fill:#aaaaaa;fill-opacity:1;stroke:none" />
  <path
     style="fill:#aaaaaa;fill-opacity:1;stroke:none"
     d="M 226.10443,80.079296 L 228.36284,82.770768 L 237.58885,77.085242 L 235.84997,74.353228 L 226.59987,72.941975 L 207.54867,70.028269 L 197.98658,72.674533 L 201.17044,76.091939 C 204.51328,78.240447 208.40215,79.271295 212.43785,80.00158 C 217.15053,80.967525 221.15339,80.867536 225.06698,80.633507 L 226.10443,80.079296 z"
     id="path3019"
     nodetypes="ccccccccccc" />
  <path
     style="fill:#aaaaaa;fill-opacity:1;stroke:none"
     d="M 273.3093,79.872491 L 275.32454,82.750554 L 285.01098,77.89076 L 283.51682,75.017588 L 274.42491,72.805508 L 255.70016,68.242468 L 245.94382,70.045273 L 248.81771,73.727166 C 251.96058,76.158845 255.7448,77.524709 259.70151,78.603946 C 264.31206,79.976954 268.3084,80.226218 272.2275,80.33417 L 273.3093,79.872491 z"
     id="path3021"
     nodetypes="ccccccccccc" />
  <path
     style="fill:#aaaaaa;fill-opacity:1;stroke:none"
     d="M 99.210581,36.993242 L 96,40.749016 L 99.02885,43.959596 L 102.42116,39.961515 L 99.210581,36.993242 z"
     id="path3592" />
  <path
     style="fill:#aaaaaa;fill-opacity:1;stroke:none"
     d="M 127.83944,25.871098 L 128.44955,29.331187 L 139.28227,29.020384 L 139.14236,25.784946 L 131.83717,19.937716 L 116.7952,7.8887741 L 107.19106,5.3994623 L 108.23966,9.9509508 C 110.06039,13.483034 112.91282,16.320209 116.0427,18.970505 C 119.64102,22.163375 123.1576,24.078212 126.66388,25.832335 L 127.83944,25.871098 z"
     id="path3594"
     nodetypes="ccccccccccc" />
  <path
     style="fill:#D62839;fill-opacity:1;stroke:none"
     d="M 97.81731,33.540353 C 98.03378,30.437816 98.960457,27.774931 102.54232,26.75573 L 138.34332,26.816307 C 141.95477,26.787836 144.09913,30.325782 144.15871,34.267277 C 143.34607,39.862687 141.07567,40.45187 138.52505,40.991323 L 102.78462,41.0519 C 99.80284,40.205566 98.21484,37.617004 97.81731,33.540353 z"
     id="path2818"
     nodetypes="ccccccc" />
  <path
     id="path2831"
     d="M 147.21058,36.993242 L 144,40.749016 L 147.02885,43.959596 L 150.42116,39.961515 L 147.21058,36.993242 z"
     style="fill:#aaaaaa;fill-opacity:1;stroke:none" />
  <path
     nodetypes="ccccccccccc"
     id="path2833"
     d="M 175.38454,26.352235 L 176.2939,29.745983 L 187.05831,28.492228 L 186.63694,25.281296 L 178.84993,20.093006 L 162.81506,9.400909 L 153.03051,7.7581259 L 154.4718,12.200905 C 156.59345,15.560858 159.68231,18.138631 163.03126,20.506055 C 166.89417,23.37316 170.56425,24.974222 174.21008,26.416077 L 175.38454,26.352235 z"
     style="fill:#aaaaaa;fill-opacity:1;stroke:none" />
  <path
     nodetypes="ccccccc"
     id="path2835"
     d="M 145.81731,33.540353 C 146.03378,30.437816 146.96046,27.774931 150.54232,26.75573 L 186.34332,26.816307 C 189.95477,26.787836 192.09913,30.325782 192.15871,34.267277 C 191.34607,39.862687 189.07567,40.45187 186.52505,40.991323 L 150.78462,41.0519 C 147.80284,40.205566 146.21484,37.617004 145.81731,33.540353 z"
     style="fill:#D62839;fill-opacity:1;stroke:none" />
  <path
     id="path2839"
     d="M 195.21058,36.993242 L 192,40.749016 L 195.02885,43.959596 L 198.42116,39.961515 L 195.21058,36.993242 z"
     style="fill:#aaaaaa;fill-opacity:1;stroke:none" />
  <path
     nodetypes="ccccccccccc"
     id="path2841"
     d="M 224.68495,28.26567 L 225.88663,31.567248 L 236.50081,29.380084 L 235.80119,26.218095 L 227.59162,21.728231 L 210.6859,12.47435 L 200.7954,11.690598 L 202.61841,15.990856 C 205.02483,19.153109 208.3266,21.451861 211.86915,23.518395 C 215.96724,26.037916 219.7629,27.313016 223.52052,28.43163 L 224.68495,28.26567 z"
     style="fill:#aaaaaa;fill-opacity:1;stroke:none" />
  <path
     nodetypes="ccccccc"
     id="path2843"
     d="M 193.81731,33.540353 C 194.03378,30.437816 194.96046,27.774931 198.54232,26.75573 L 234.34332,26.816307 C 237.95477,26.787836 240.09913,30.325782 240.15871,34.267277 C 239.34607,39.862687 237.07567,40.45187 234.52505,40.991323 L 198.78462,41.0519 C 195.80284,40.205566 194.21484,37.617004 193.81731,33.540353 z"
     style="fill:#D62839;fill-opacity:1;stroke:none" />
  <path
     style="fill:#aaaaaa;fill-opacity:1;stroke:none"
     d="M 243.21058,36.993242 L 240,40.749016 L 243.02885,43.959596 L 246.42116,39.961515 L 243.21058,36.993242 z"
     id="path2847" />
  <path
     style="fill:#aaaaaa;fill-opacity:1;stroke:none"
     d="M 271.84747,28.923458 L 273.33232,32.107739 L 283.71549,29.003811 L 282.74295,25.914831 L 274.1733,22.157563 L 256.52538,14.412327 L 246.60421,14.493571 L 248.79508,18.618579 C 251.46795,21.559065 254.95751,23.561301 258.66668,25.311219 C 262.96877,27.46398 266.86112,28.403414 270.70193,29.190273 L 271.84747,28.923458 z"
     id="path2849"
     nodetypes="ccccccccccc" />
  <path
     style="fill:#D62839;fill-opacity:1;stroke:none"
     d="M 241.81731,33.540353 C 242.03378,30.437816 242.96046,27.774931 246.54232,26.75573 L 282.34332,26.816307 C 285.95477,26.787836 288.09913,30.325782 288.15871,34.267277 C 287.34607,39.862687 285.07567,40.45187 282.52505,40.991323 L 246.78462,41.0519 C 243.80284,40.205566 242.21484,37.617004 241.81731,33.540353 z"
     id="path2851"
     nodetypes="ccccccc" />
  <path
     id="path2855"
     d="M 3.2105806,36.993242 L 0,40.749016 L 3.0288496,43.959596 L 6.4211613,39.961515 L 3.2105806,36.993242 z"
     style="fill:#aaaaaa;fill-opacity:1;stroke:none" />
  <path
     nodetypes="ccccccccccc"
     id="path2857"
     d="M 32.953885,25.604767 L 32.953885,29.118233 L 43.676012,30.693234 L 44.100051,27.482654 L 37.921198,20.455723 L 25.200029,5.9778214 L 16.174057,1.8585859 L 16.416365,6.5230143 C 17.596098,10.317604 19.912526,13.606996 22.534642,16.760526 C 25.523858,20.529731 28.654497,23.026124 31.802921,25.362459 L 32.953885,25.604767 z"
     style="fill:#aaaaaa;fill-opacity:1;stroke:none" />
  <path
     nodetypes="ccccccc"
     id="path2859"
     d="M 1.8173098,33.540353 C 2.0337799,30.437816 2.9604571,27.774931 6.5423152,26.75573 L 42.343318,26.816307 C 45.954766,26.787836 48.09913,30.325782 48.15871,34.267277 C 47.34607,39.862687 45.075673,40.45187 42.525049,40.991323 L 6.7846232,41.0519 C 3.8028403,40.205566 2.21484,37.617004 1.8173098,33.540353 z"
     style="fill:#D62839;fill-opacity:1;stroke:none" />
  <path
     style="fill:#aaaaaa;fill-opacity:1;stroke:none"
     d="M 51.210581,36.993242 L 48,40.749016 L 51.02885,43.959596 L 54.421161,39.961515 L 51.210581,36.993242 z"
     id="path2863" />
  <path
     style="fill:#aaaaaa;fill-opacity:1;stroke:none"
     d="M 81.158099,25.921896 L 81.464317,29.421992 L 92.282914,30.056505 L 92.425519,26.821185 L 85.657741,20.359516 L 71.723147,7.0454296 L 62.372507,3.7285343 L 63.020424,8.3540947 C 64.526389,12.031424 67.120691,15.106409 70.007678,18.019407 C 73.314027,21.513741 76.650327,23.727782 79.990396,25.780823 L 81.158099,25.921896 z"
     id="path2865"
     nodetypes="ccccccccccc" />
  <path
     style="fill:#D62839;fill-opacity:1;stroke:none"
     d="M 49.81731,33.540353 C 50.03378,30.437816 50.960457,27.774931 54.542315,26.75573 L 90.343318,26.816307 C 93.954766,26.787836 96.09913,30.325782 96.15871,34.267277 C 95.34607,39.862687 93.075673,40.45187 90.525049,40.991323 L 54.784623,41.0519 C 51.80284,40.205566 50.21484,37.617004 49.81731,33.540353 z"
     id="path2867"
     nodetypes="ccccccc" />
  <path
     id="path2871"
     d="M 99.210581,84.993646 L 96,88.74942 L 99.02885,91.96 L 102.42116,87.961919 L 99.210581,84.993646 z"
     style="fill:#aaaaaa;fill-opacity:1;stroke:none" />
  <path
     nodetypes="ccccccccccc"
     id="path2873"
     d="M 130.4035,80.677427 L 132.66191,83.368899 L 141.88792,77.683373 L 140.14904,74.951359 L 130.89894,73.540106 L 111.84774,70.6264 L 102.28565,73.272664 L 105.46951,76.69007 C 108.81235,78.838578 112.70122,79.869426 116.73692,80.599711 C 121.4496,81.565656 125.45246,81.465667 129.36605,81.231638 L 130.4035,80.677427 z"
     style="fill:#aaaaaa;fill-opacity:1;stroke:none" />
  <path
     nodetypes="ccccccc"
     id="path2875"
     d="M 97.81731,81.540757 C 98.03378,78.43822 98.960457,75.775335 102.54232,74.756134 L 138.34332,74.816711 C 141.95477,74.78824 144.09913,78.326186 144.15871,82.267681 C 143.34607,87.863091 141.07567,88.452274 138.52505,88.991727 L 102.78462,89.052304 C 99.80284,88.20597 98.21484,85.617408 97.81731,81.540757 z"
     style="fill:#D62839;fill-opacity:1;stroke:none" />
  <path
     style="fill:#aaaaaa;fill-opacity:1;stroke:none"
     d="M 147.21058,84.993646 L 144,88.74942 L 147.02885,91.96 L 150.42116,87.961919 L 147.21058,84.993646 z"
     id="path2879" />
  <path
     style="fill:#aaaaaa;fill-opacity:1;stroke:none"
     d="M 178.23938,80.843626 L 180.72377,83.328022 L 189.41915,76.860032 L 187.44877,74.289967 L 178.11087,73.690283 L 158.87822,72.448086 L 149.58316,75.917672 L 153.05274,79.044589 C 156.57012,80.893567 160.53404,81.581555 164.61803,81.957325 C 169.39696,82.508858 173.37587,82.060378 177.25418,81.486147 L 178.23938,80.843626 z"
     id="path2881"
     nodetypes="ccccccccccc" />
  <path
     style="fill:#D62839;fill-opacity:1;stroke:none"
     d="M 145.81731,81.540757 C 146.03378,78.43822 146.96046,75.775335 150.54232,74.756134 L 186.34332,74.816711 C 189.95477,74.78824 192.09913,78.326186 192.15871,82.267681 C 191.34607,87.863091 189.07567,88.452274 186.52505,88.991727 L 150.78462,89.052304 C 147.80284,88.20597 146.21484,85.617408 145.81731,81.540757 z"
     id="path2883"
     nodetypes="ccccccc" />
  <path
     style="fill:#aaaaaa;fill-opacity:1;stroke:none"
     d="M 195.21058,84.993646 L 192,88.74942 L 195.02885,91.96 L 198.42116,87.961919 L 195.21058,84.993646 z"
     id="path2887" />
  <path
     style="fill:#D62839;fill-opacity:1;stroke:none"
     d="M 193.81731,81.540757 C 194.03378,78.43822 194.96046,75.775335 198.54232,74.756134 L 234.34332,74.816711 C 237.95477,74.78824 240.09913,78.326186 240.15871,82.267681 C 239.34607,87.863091 237.07567,88.452274 234.52505,88.991727 L 198.78462,89.052304 C 195.80284,88.20597 194.21484,85.617408 193.81731,81.540757 z"
     id="path2891"
     nodetypes="ccccccc" />
  <path
     id="path2895"
     d="M 243.21058,84.993646 L 240,88.74942 L 243.02885,91.96 L 246.42116,87.961919 L 243.21058,84.993646 z"
     style="fill:#aaaaaa;fill-opacity:1;stroke:none" />
  <path
     nodetypes="ccccccc"
     id="path2899"
     d="M 241.81731,81.540757 C 242.03378,78.43822 242.96046,75.775335 246.54232,74.756134 L 282.34332,74.816711 C 285.95477,74.78824 288.09913,78.326186 288.15871,82.267681 C 287.34607,87.863091 285.07567,88.452274 282.52505,88.991727 L 246.78462,89.052304 C 243.80284,88.20597 242.21484,85.617408 241.81731,81.540757 z"
     style="fill:#D62839;fill-opacity:1;stroke:none" />
  <path
     style="fill:#aaaaaa;fill-opacity:1;stroke:none"
     d="M 3.2105806,84.993646 L 0,88.74942 L 3.0288496,91.96 L 6.4211613,87.961919 L 3.2105806,84.993646 z"
     id="path2903" />
  <path
     style="fill:#aaaaaa;fill-opacity:1;stroke:none"
     d="M 33.35308,78.423562 L 35.109813,81.466312 L 45.182948,77.46924 L 43.944886,74.476776 L 35.080377,71.480702 L 16.82457,65.303056 L 6.9482315,66.24868 L 9.4902905,70.167039 C 12.409265,72.863384 16.060046,74.553867 19.90763,75.973846 C 24.38097,77.743465 28.340379,78.340085 32.235162,78.789199 L 33.35308,78.423562 z"
     id="path2905"
     nodetypes="ccccccccccc" />
  <path
     style="fill:#D62839;fill-opacity:1;stroke:none"
     d="M 1.8173098,81.540757 C 2.0337799,78.43822 2.9604571,75.775335 6.5423152,74.756134 L 42.343318,74.816711 C 45.954766,74.78824 48.09913,78.326186 48.15871,82.267681 C 47.34607,87.863091 45.075673,88.452274 42.525049,88.991727 L 6.7846232,89.052304 C 3.8028403,88.20597 2.21484,85.617408 1.8173098,81.540757 z"
     id="path2907"
     nodetypes="ccccccc" />
  <path
     id="path2911"
     d="M 51.210581,84.993646 L 48,88.74942 L 51.02885,91.96 L 54.421161,87.961919 L 51.210581,84.993646 z"
     style="fill:#aaaaaa;fill-opacity:1;stroke:none" />
  <path
     nodetypes="ccccccccccc"
     id="path2913"
     d="M 81.907429,79.573426 L 83.922671,82.451489 L 93.609106,77.591695 L 92.114946,74.718523 L 83.023044,72.506443 L 64.298289,67.943403 L 54.541949,69.746208 L 57.415842,73.428101 C 60.55871,75.85978 64.342935,77.225644 68.299637,78.304881 C 72.910187,79.677889 76.906528,79.927153 80.825633,80.035105 L 81.907429,79.573426 z"
     style="fill:#aaaaaa;fill-opacity:1;stroke:none" />
  <path
     nodetypes="ccccccc"
     id="path2915"
     d="M 49.81731,81.540757 C 50.03378,78.43822 50.960457,75.775335 54.542315,74.756134 L 90.343318,74.816711 C 93.954766,74.78824 96.09913,78.326186 96.15871,82.267681 C 95.34607,87.863091 93.075673,88.452274 90.525049,88.991727 L 54.784623,89.052304 C 51.80284,88.20597 50.21484,85.617408 49.81731,81.540757 z"
     style="fill:#D62839;fill-opacity:1;stroke:none" />
  <path
     style="fill:#aaaaaa;fill-opacity:1;stroke:none"
     d="M 99.210581,132.99365 L 96,136.74942 L 99.02885,139.96 L 102.42116,135.96192 L 99.210581,132.99365 z"
     id="path2919" />
  <path
     style="fill:#D62839;fill-opacity:1;stroke:none"
     d="M 97.81731,129.54076 C 98.03378,126.43822 98.960457,123.77533 102.54232,122.75613 L 138.34332,122.81671 C 141.95477,122.78824 144.09913,126.32619 144.15871,130.26768 C 143.34607,135.86309 141.07567,136.45227 138.52505,136.99173 L 102.78462,137.0523 C 99.80284,136.20597 98.21484,133.61741 97.81731,129.54076 z"
     id="path2923"
     nodetypes="ccccccc" />
  <path
     id="path2927"
     d="M 147.21058,132.99365 L 144,136.74942 L 147.02885,139.96 L 150.42116,135.96192 L 147.21058,132.99365 z"
     style="fill:#aaaaaa;fill-opacity:1;stroke:none" />
  <path
     nodetypes="ccccccc"
     id="path2931"
     d="M 145.81731,129.54076 C 146.03378,126.43822 146.96046,123.77533 150.54232,122.75613 L 186.34332,122.81671 C 189.95477,122.78824 192.09913,126.32619 192.15871,130.26768 C 191.34607,135.86309 189.07567,136.45227 186.52505,136.99173 L 150.78462,137.0523 C 147.80284,136.20597 146.21484,133.61741 145.81731,129.54076 z"
     style="fill:#D62839;fill-opacity:1;stroke:none" />
  <path
     id="path2935"
     d="M 195.21058,132.99365 L 192,136.74942 L 195.02885,139.96 L 198.42116,135.96192 L 195.21058,132.99365 z"
     style="fill:#aaaaaa;fill-opacity:1;stroke:none" />
  <path
     nodetypes="ccccccc"
     id="path2939"
     d="M 193.81731,129.54076 C 194.03378,126.43822 194.96046,123.77533 198.54232,122.75613 L 234.34332,122.81671 C 237.95477,122.78824 240.09913,126.32619 240.15871,130.26768 C 239.34607,135.86309 237.07567,136.45227 234.52505,136.99173 L 198.78462,137.0523 C 195.80284,136.20597 194.21484,133.61741 193.81731,129.54076 z"
     style="fill:#D62839;fill-opacity:1;stroke:none" />
  <path
     style="fill:#aaaaaa;fill-opacity:1;stroke:none"
     d="M 243.21058,132.99365 L 240,136.74942 L 243.02885,139.96 L 246.42116,135.96192 L 243.21058,132.99365 z"
     id="path2943" />
  <path
     style="fill:#D62839;fill-opacity:1;stroke:none"
     d="M 241.81731,129.54076 C 242.03378,126.43822 242.96046,123.77533 246.54232,122.75613 L 282.34332,122.81671 C 285.95477,122.78824 288.09913,126.32619 288.15871,130.26768 C 287.34607,135.86309 285.07567,136.45227 282.52505,136.99173 L 246.78462,137.0523 C 243.80284,136.20597 242.21484,133.61741 241.81731,129.54076 z"
     id="path2947"
     nodetypes="ccccccc" />
  <path
     id="path2951"
     d="M 3.2105806,132.99365 L 0,136.74942 L 3.0288496,139.96 L 6.4211613,135.96192 L 3.2105806,132.99365 z"
     style="fill:#aaaaaa;fill-opacity:1;stroke:none" />
  <path
     nodetypes="ccccccc"
     id="path2955"
     d="M 1.8173098,129.54076 C 2.0337799,126.43822 2.9604571,123.77533 6.5423152,122.75613 L 42.343318,122.81671 C 45.954766,122.78824 48.09913,126.32619 48.15871,130.26768 C 47.34607,135.86309 45.075673,136.45227 42.525049,136.99173 L 6.7846232,137.0523 C 3.8028403,136.20597 2.21484,133.61741 1.8173098,129.54076 z"
     style="fill:#D62839;fill-opacity:1;stroke:none" />
  <path
     style="fill:#aaaaaa;fill-opacity:1;stroke:none"
     d="M 51.210581,132.99365 L 48,136.74942 L 51.02885,139.96 L 54.421161,135.96192 L 51.210581,132.99365 z"
     id="path2959" />
  <path
     style="fill:#D62839;fill-opacity:1;stroke:none"
     d="M 49.81731,129.54076 C 50.03378,126.43822 50.960457,123.77533 54.542315,122.75613 L 90.343318,122.81671 C 93.954766,122.78824 96.09913,126.32619 96.15871,130.26768 C 95.34607,135.86309 93.075673,136.45227 90.525049,136.99173 L 54.784623,137.0523 C 51.80284,136.20597 50.21484,133.61741 49.81731,129.54076 z"
     id="path2963"
     nodetypes="ccccccc" />
</svg>
