<?xml version="1.0" encoding="UTF-8" standalone="no"?>
<svg height="48" width="48">
<rect id="1" style="fill:#aaaaaa;opacity:1;stroke:#000000;stroke-width:1" width="34.9" height="40.9" x="6.6" y="3.6"/>
<path id="2" style="fill:#aaaaaa;stroke:#000000;opacity:1;stroke-width:1"
d="M 32.3,17.8 C 24.2,17.8 17.8,24.3 17.8,32.3 C 17.8,40.4 24.2,46.8 32.3,46.8 C 40.3,46.8 46.8,40.4 46.8,32.3 C 46.8,24.3 40.3,17.8 32.3,17.8 L 32.3,17.8 z M 32.3,35.8 C 30.4,35.8 28.8,34.2 28.8,32.3 C 28.8,30.4 30.4,28.9 32.3,28.9 C 34.2,28.9 35.8,30.4 35.8,32.3 C 35.8,34.2 34.2,35.8 32.3,35.8 z"/>
<path id="3" style="fill:#555555;opacity:1;stroke:none"
d="M 32.3,25.3 C 28.4,25.3 25.25,28.5 25.25,32.3 C 25.3,36.2 28.4,39.3 32.3,39.3 C 36.2,39.3 39.3,36.1 39.3125,32.3 C 39.3,28.4 36.1,25.3 32.3,25.3 z M 32.3,27.8 C 34.8,27.8 36.9,29.8 36.9,32.3 C 36.9,34.9 34.8,36.9 32.3,36.9 C 29.8,36.9 27.7,34.9 27.75,32.3 C 27.7,29.8 29.8,27.78125 32.3,27.8 z"/>
<!-- Jakub Steiner http://jimmac.musichall.cz http://creativecommons.org/licenses/by-sa/2.0/ -->
</svg>
