<?xml version="1.0" encoding="UTF-8" standalone="no"?>
<svg height="48" width="48">
<rect id="01" style="fill:#aaaaaa;opacity:1;stroke:#000000;stroke-width:1" rx="0" ry="0" y="3.6" x="6.6" height="40.9" width="34.8" />
<rect id="02" ry="0" rx="0" y="10.2" x="16.6" height="1" width="20" style="fill:#c8c8c8;opacity:1;stroke:none" />
<rect id="03" ry="0" rx="0" y="12.2" x="16.6" height="1" width="20" style="fill:#c8c8c8;opacity:1;stroke:none" />
<rect ry="0" rx="0" y="14.2" x="16.6" height="1" width="20" id="04" style="fill:#c8c8c8;opacity:1;stroke:none" />
<rect id="05" ry="0" rx="0.1" y="18.2" x="16.6" height="1" width="20" style="fill:#c8c8c8;opacity:1;stroke:none" />
<rect ry="0" rx="0.1" y="20.2" x="16.6" height="1" width="20" id="06" style="fill:#c8c8c8;opacity:1;stroke:none" />
<rect ry="0" rx="0.1" y="22.2" x="16.6" height="1" width="20" id="07" style="fill:#c8c8c8;opacity:1;stroke:none" />
<rect ry="0" rx="0.1" y="28.2" x="16.6" height="1" width="20" id="08" style="fill:#c8c8c8;opacity:1;stroke:none" />
<rect ry="0" rx="0.1" y="26.2" x="16.6" height="1" width="20" id="09" style="fill:#c8c8c8;opacity:1;stroke:none" />
<rect ry="0" rx="0.1" y="30.2" x="16.6" height="1" width="20" id="10" style="fill:#c8c8c8;opacity:1;stroke:none" />
<rect ry="0" rx="0.1" y="34.2" x="16.6" height="1" width="20" id="11" style="fill:#c8c8c8;opacity:1;stroke:none" />
<rect id="12" ry="0" rx="0.1" y="36.2" x="16.6" height="1" width="20" style="fill:#c8c8c8;opacity:1;stroke:none" />
<rect id="13" ry="0" rx="0.1" y="38.2" x="16.6" height="1" width="20" style="fill:#c8c8c8;opacity:1;stroke:none" />
<rect id="14" style="fill:#c8c8c8;opacity:1;stroke:none" transform="matrix(0,1,-1,0,0,0)" ry="0" rx="0" y="-36.6" x="10.2" height="1" width="4.9" />
<rect id="15" style="fill:#c8c8c8;opacity:1;stroke:none" transform="matrix(0,1,-1,0,0,0)" ry="0" rx="0" y="-36.7" x="26.3" height="1" width="4.9" />
<path id="16" style="fill:#000000;opacity:1;stroke:none"
d="M 33.6,24.5 L 33.6,24.6 L 33.6,29.5 C 33.6,30 33.3,30.4 32.6,30.4 C 32,30.4 31.7,30.2 31.6,29.8 C 31.6,29.4 31.9,29.2 32.5,29.2 C 32.8,29.2 33.1,29.3 33.3,29.4 L 33.3,29.4 L 33.3,26.8 L 29.9,26.8 L 29.9,29.5 C 29.9,30 29.6,30.3 28.9,30.4 L 28.9,30.4 C 28.3,30.4 27.9,30.2 27.9,29.7 C 27.9,29.4 28.2,29.2 28.8,29.2 C 29.1,29.2 29.4,29.3 29.6,29.4 L 29.6,24.5 L 33.6,24.5 M 29.9,25.4 L 29.9,26 L 33.3,26 L 33.3,25.4 L 29.9,25.4" />
<path id="17" style="fill:#000000;opacity:1;stroke:none"
d="M 36,7.8 L 36.3,7.8 L 36.3,7.9 L 36.3,12.9 C 36.3,13.3 36.1,13.6 35.5,13.7 L 35.4,13.7 L 35.2,13.7 C 34.7,13.7 34.4,13.5 34.3,13.2 L 34.3,13.1 C 34.3,12.7 34.5,12.5 35.1,12.5 L 35.2,12.4 C 35.5,12.4 35.7,12.5 36,12.7 L 36,12.7 L 36,7.9 L 36,7.8" />
<path id="18" style="fill:#000000;opacity:1;stroke:none"
d="M 27.3,32.4 L 27.7,32.4 L 27.7,32.5 L 27.7,32.6 C 27.8,32.8 28,32.9 28.5,33.1 C 29.1,33.3 29.4,33.5 29.4,33.9 C 29.4,34.3 29.3,34.6 28.9,34.8 L 28.9,34.8 L 28.8,34.7 C 29,34.6 29,34.4 29,34.2 C 29,34 28.7,33.8 28.2,33.6 C 27.9,33.5 27.8,33.4 27.7,33.4 L 27.7,37.5 C 27.7,37.9 27.4,38.2 26.8,38.3 L 26.6,38.3 C 26,38.3 25.7,38.1 25.7,37.7 C 25.7,37.3 25.9,37.1 26.5,37.1 L 26.6,37.1 C 26.8,37.1 27.1,37.1 27.3,37.3 L 27.3,32.5 L 27.3,32.4" />
<path id="19" style="fill:#000000;opacity:1;stroke:none"
d="M 30.3,8.5 L 33,9.3 L 33,9.4 L 33,14.4 C 33,14.8 32.7,15.1 32.2,15.2 L 32,15.2 C 31.5,15.2 31.2,15 31.2,14.6 L 31.2,14.5 C 31.2,14.2 31.4,14 31.9,14 L 32,14 C 32.3,14 32.5,14 32.7,14.2 L 32.7,10.1 L 30.6,9.5 L 30.6,13.6 C 30.6,14 30.4,14.2 30,14.4 L 29.7,14.4 L 29.6,14.4 C 29,14.4 28.8,14.2 28.8,13.8 L 28.8,13.8 C 28.8,13.5 29,13.2 29.4,13.2 L 29.6,13.1 C 29.8,13.1 30,13.2 30.3,13.4 L 30.3,8.6 L 30.3,8.5" />
<path id="20" style="fill:#000000;opacity:1;stroke:none"
d="M 24.1,31.4 L 24.4,31.4 L 24.4,31.5 L 24.4,36.5 C 24.4,36.9 24.2,37.2 23.7,37.3 L 23.5,37.3 L 23.3,37.3 C 22.8,37.3 22.5,37.1 22.4,36.8 L 22.4,36.7 C 22.4,36.3 22.7,36.1 23.2,36.1 L 23.3,36 C 23.6,36 23.8,36.1 24.1,36.3 L 24.1,36.3 L 24.1,31.5 L 24.1,31.4" />
<path id="21" style="fill:#000000;opacity:1;stroke:none"
d="M 30.4,33.4 L 30.7,33.4 L 30.7,33.5 L 30.7,38.5 C 30.7,38.9 30.4,39.2 29.9,39.3 L 29.7,39.3 L 29.6,39.3 C 29,39.3 28.7,39.1 28.7,38.8 L 28.6,38.7 C 28.6,38.3 28.9,38.1 29.5,38.1 L 29.6,38.1 C 29.9,38.1 30.1,38.1 30.3,38.3 L 30.4,38.3 L 30.4,33.5 L 30.4,33.4" />
<path id="22" style="fill:#000000;opacity:1;stroke:none"
d="M 24.7,17.5 L 27.4,18.3 L 27.4,18.3 L 27.4,23.4 C 27.4,23.8 27.2,24.1 26.7,24.2 L 26.4,24.2 C 25.9,24.2 25.6,24 25.6,23.5 L 25.6,23.5 C 25.6,23.2 25.8,23 26.3,22.9 L 26.5,22.9 C 26.7,22.9 26.9,23 27.1,23.2 L 27.1,19.1 L 25,18.5 L 25,22.6 C 25,23 24.8,23.2 24.4,23.4 L 24.1,23.4 L 24,23.4 C 23.5,23.4 23.2,23.2 23.2,22.8 L 23.2,22.7 C 23.2,22.4 23.4,22.2 23.8,22.1 L 24,22.1 C 24.2,22.1 24.5,22.2 24.7,22.4 L 24.7,17.6 L 24.7,17.5" />
<rect id="23" style="fill:#c8c8c8;opacity:1;stroke:none"
transform="matrix(0,1,-1,0,0,0)" ry="0" rx="0" y="-17.6" x="18.2" height="1" width="4.9" />
<path id="24" style="fill:#000000;opacity:1;stroke:none"
d="M 20.2,18.9 L 20.2,18.4 L 20,18.4 L 20,18 L 20.2,18 L 20.2,17.2 L 20.3,17.2 L 20.3,17.9 L 20.6,17.9 L 20.6,17.1 L 20.7,17.1 L 20.7,17.8 L 20.9,17.8 L 20.9,18.2 L 20.7,18.2 L 20.7,18.8 L 20.9,18.7 L 20.9,19.1 L 20.7,19.2 L 20.7,19.9 L 20.6,19.9 L 20.6,19.2 L 20.3,19.3 L 20.3,20.1 L 20.2,20.1 L 20.2,19.3 L 20,19.4 L 20,19 L 20.2,18.9 M 20.6,18.8 L 20.6,18.3 L 20.3,18.3 L 20.3,18.9 L 20.6,18.8" />
<path id="25" style="fill:#000000;opacity:1;stroke:none" transform-center-y="-0.9" transform-center-x="2.0"
d="M 21.2,20.6 L 21.2,20 L 21,20.1 L 21,19.7 L 21.2,19.6 L 21.2,18.9 L 21.3,18.9 L 21.3,19.6 L 21.6,19.5 L 21.6,18.8 L 21.7,18.8 L 21.7,19.5 L 21.9,19.5 L 21.9,19.9 L 21.7,19.9 L 21.7,20.5 L 21.9,20.4 L 21.9,20.8 L 21.7,20.9 L 21.7,21.6 L 21.6,21.6 L 21.6,20.9 L 21.3,21 L 21.3,21.8 L 21.2,21.8 L 21.2,21 L 21,21.1 L 21,20.7 L 21.2,20.6 M 21.6,20.5 L 21.6,19.9 L 21.3,20 L 21.3,20.6 L 21.6,20.5" />
<rect id="26" style="fill:#c8c8c8;opacity:1;stroke:none" transform="matrix(0,1,-1,0,0,0)" ry="0" rx="0" y="-36.7" x="34.3" height="1" width="4.9" />
<path id="27" style="fill:#000000;opacity:1;stroke:none;"
d="M 36.5,34.7 L 36.5,34.7 L 36.5,39.6 C 36.5,40.2 36.1,40.5 35.5,40.6 C 34.9,40.6 34.5,40.3 34.5,39.9 C 34.5,39.6 34.8,39.4 35.4,39.3 C 35.7,39.3 35.9,39.4 36.1,39.6 L 36.1,39.6 L 36.1,37 L 32.8,37 L 32.8,39.6 C 32.8,40.2 32.4,40.5 31.8,40.6 L 31.8,40.6 C 31.1,40.6 30.8,40.3 30.8,39.9 C 30.8,39.6 31.1,39.4 31.7,39.3 C 32,39.3 32.2,39.4 32.4,39.6 L 32.4,34.7 L 36.5,34.7 M 32.8,35.5 L 32.8,36.1 L 36.1,36.1 L 36.1,35.5 L 32.8,35.5" />
<rect id="28" style="fill:#c8c8c8;opacity:1;stroke:none"
transform="matrix(0,1,-1,0,0,0)" ry="0" rx="0" y="-17.6" x="26.3" height="1" width="4.9" />
<path id="29" style="fill:#000000;opacity:1;stroke:none"
d="M 31,16.4 L 31.3,16.4 L 31.4,16.5 L 31.4,16.6 C 31.5,16.8 31.7,16.9 32.2,17.1 C 32.8,17.3 33.1,17.5 33.1,17.9 C 33.1,18.3 32.9,18.6 32.6,18.8 L 32.6,18.8 L 32.5,18.7 C 32.6,18.6 32.7,18.4 32.7,18.2 C 32.7,18 32.4,17.8 31.8,17.6 C 31.6,17.5 31.4,17.4 31.4,17.4 L 31.4,21.5 C 31.4,21.9 31.1,22.2 30.5,22.3 L 30.3,22.3 C 29.7,22.3 29.3,22.1 29.3,21.6 C 29.3,21.3 29.6,21.1 30.2,21 L 30.3,21 C 30.5,21 30.7,21.1 31,21.3 L 31,16.5 L 31,16.4" />
<path id="30" style="fill:#000000;opacity:1;stroke:none"
d="M 25.2,24.2 L 25.5,24.2 L 25.5,24.3 L 25.5,29.3 C 25.5,29.7 25.3,30 24.8,30.1 L 24.6,30.1 L 24.5,30.1 C 23.9,30.1 23.6,29.9 23.5,29.6 L 23.5,29.5 C 23.5,29.1 23.8,28.9 24.3,28.9 L 24.5,28.8 C 24.7,28.8 25,28.9 25.2,29.1 L 25.2,29.1 L 25.2,24.3 L 25.2,24.2" />
<path id="31" style="fill:#000000;opacity:1;stroke:none"
d="M 36,26.7 L 36.3,26.7 L 36.3,26.7 L 36.3,31.7 C 36.3,32.2 36,32.4 35.5,32.5 L 35.3,32.6 L 35.2,32.6 C 34.7,32.6 34.3,32.4 34.3,32 L 34.3,31.9 C 34.3,31.6 34.5,31.4 35.1,31.3 L 35.2,31.3 C 35.5,31.3 35.7,31.4 35.9,31.6 L 36,31.6 L 36,26.7 L 36,26.7" />
<rect id="32" style="fill:#c8c8c8;opacity:1;stroke:none" transform="matrix(0,1,-1,0,0,0)" ry="0" rx="0" y="-36.7" x="18.2" height="1" width="4.9" />
<path id="33" style="fill:#000000;opacity:1;stroke:none"
d="M 33.7,17.6 L 36.4,18.4 L 36.4,18.4 L 36.4,23.5 C 36.4,23.9 36.2,24.1 35.7,24.2 L 35.4,24.2 C 34.9,24.2 34.6,24 34.6,23.6 L 34.6,23.6 C 34.6,23.2 34.8,23.1 35.3,23 L 35.5,23 C 35.7,23 35.9,23.1 36.1,23.2 L 36.1,19.2 L 34,18.5 L 34,22.7 C 34,23 33.8,23.3 33.4,23.4 L 33.1,23.4 L 33,23.4 C 32.5,23.4 32.2,23.2 32.2,22.8 L 32.2,22.8 C 32.2,22.5 32.4,22.3 32.8,22.2 L 33,22.2 C 33.2,22.2 33.5,22.3 33.7,22.4 L 33.7,17.6 L 33.7,17.6" />
<rect id="34" style="fill:#c8c8c8;opacity:1;stroke:none" transform="matrix(0,1,-1,0,0,0)" ry="0" rx="0" y="-17.6" x="34.2" height="1" width="4.9" />
<path id="35" style="fill:#000000;opacity:1;stroke:none"
d="M 19.4,27 L 19.4,26.4 L 19.3,26.4 L 19.3,26.1 L 19.4,26 L 19.4,25.2 L 19.6,25.2 L 19.6,26 L 19.8,25.9 L 19.8,25.1 L 19.9,25.1 L 19.9,25.9 L 20.1,25.8 L 20.1,26.2 L 19.9,26.3 L 19.9,26.8 L 20.1,26.8 L 20.1,27.2 L 19.9,27.2 L 19.9,28 L 19.8,28 L 19.8,27.3 L 19.6,27.3 L 19.6,28.1 L 19.4,28.1 L 19.4,27.4 L 19.3,27.4 L 19.3,27 L 19.4,27 M 19.8,26.9 L 19.8,26.3 L 19.6,26.4 L 19.6,26.9 L 19.8,26.9" />
<path id="36" style="fill:#000000;opacity:1;stroke:none"
d="M 20.4,28.6 L 20.4,28.1 L 20.3,28.1 L 20.3,27.7 L 20.4,27.7 L 20.4,26.9 L 20.6,26.9 L 20.6,27.7 L 20.8,27.6 L 20.8,26.8 L 20.9,26.8 L 20.9,27.6 L 21.1,27.5 L 21.1,27.9 L 20.9,28 L 20.9,28.5 L 21.1,28.5 L 21.1,28.9 L 20.9,28.9 L 20.9,29.7 L 20.8,29.7 L 20.8,29 L 20.6,29 L 20.6,29.8 L 20.4,29.8 L 20.4,29.1 L 20.3,29.1 L 20.3,28.7 L 20.4,28.6 M 20.8,28.6 L 20.8,28 L 20.6,28.1 L 20.6,28.6 L 20.8,28.6" transform-center-y="-0.9" transform-center-x="2.0" />
<path id="37" style="fill:#000000;opacity:1;stroke:none"
d="M 20,35 L 20,34.5 L 19.9,34.5 L 19.9,34.1 L 20,34.1 L 20,33.3 L 20.2,33.3 L 20.2,34.1 L 20.4,34 L 20.4,33.2 L 20.5,33.2 L 20.5,34 L 20.7,33.9 L 20.7,34.3 L 20.5,34.4 L 20.5,34.9 L 20.7,34.9 L 20.7,35.3 L 20.5,35.3 L 20.5,36.1 L 20.4,36.1 L 20.4,35.4 L 20.2,35.4 L 20.2,36.2 L 20,36.2 L 20,35.5 L 19.9,35.5 L 19.9,35.1 L 20,35 M 20.4,34.9 L 20.4,34.4 L 20.2,34.4 L 20.2,35 L 20.4,34.9" />
<path id="38" style="fill:#000000;opacity:1;stroke:none"
d="M 18.2,29.2 C 18.1,29.3 18,29.3 18,29.4 C 17.9,29.5 17.8,29.6 17.8,29.7 C 17.8,29.9 17.9,30 18.1,30.2 C 18.2,30.2 18.2,30.2 18.2,30.2 C 18.2,30.3 18.2,30.3 18.1,30.3 C 18,30.22 17.9,30.1 17.8,30 C 17.7,29.9 17.6,29.8 17.6,29.6 C 17.6,29.5 17.6,29.4 17.7,29.3 C 17.7,29.3 17.7,29.2 17.8,29.1 C 17.9,29 18,28.9 18.2,28.8 L 18,28.2 C 17.8,28.4 17.6,28.6 17.4,28.9 C 17.3,29.1 17.2,29.4 17.2,29.6 L 17.2,29.7 C 17.2,29.8 17.2,29.9 17.2,30 C 17.3,30.2 17.5,30.4 17.8,30.5 C 17.9,30.6 18,30.6 18.2,30.6 C 18.3,30.6 18.4,30.6 18.5,30.5 L 18.2,29.2 M 18.4,29.2 L 18.6,30.5 C 18.9,30.4 19,30.2 19,29.8 C 19,29.6 18.9,29.4 18.7,29.3 C 18.6,29.2 18.5,29.2 18.4,29.2 M 18,27.5 C 18,27.5 18.1,27.4 18.2,27.3 C 18.2,27.3 18.3,27.2 18.3,27.2 L 18.4,27 C 18.5,26.8 18.6,26.6 18.6,26.4 L 18.6,26.3 C 18.6,26.1 18.5,26 18.4,26 C 18.3,26 18.2,26.1 18.2,26.3 L 18,26.4 L 18,26.6 L 18,26.9 L 17.9,27 L 17.9,27.2 C 17.9,27.3 18,27.4 18,27.5 M 17.9,27.6 L 17.8,27.2 C 17.8,27 17.8,26.9 17.8,26.8 C 17.8,26.4 17.9,26 18,25.8 C 18,25.8 18,25.7 18.1,25.6 C 18.2,25.5 18.3,25.5 18.4,25.5 C 18.4,25.5 18.4,25.5 18.4,25.5 L 18.5,25.6 C 18.7,25.9 18.8,26.2 18.8,26.6 C 18.8,26.8 18.8,26.9 18.7,27 C 18.7,27 18.7,27 18.7,27.2 C 18.6,27.6 18.4,27.9 18.1,28.1 L 18.3,28.8 L 18.4,28.8 C 18.7,28.8 18.9,28.9 19,29 C 19.2,29.3 19.3,29.5 19.3,29.7 C 19.3,29.9 19.2,30.1 19.1,30.3 C 19,30.4 18.8,30.5 18.7,30.6 L 18.8,31.3 L 18.8,31.6 C 18.8,31.7 18.8,31.8 18.7,32 C 18.7,32 18.6,32.1 18.5,32.2 C 18.4,32.3 18.2,32.3 18.1,32.3 C 17.9,32.3 17.8,32.2 17.6,32.1 C 17.5,32 17.4,31.9 17.4,31.7 C 17.4,31.7 17.4,31.6 17.4,31.6 L 17.5,31.5 C 17.5,31.4 17.5,31.4 17.6,31.3 C 17.7,31.3 17.7,31.2 17.8,31.2 C 18,31.2 18,31.3 18.1,31.4 C 18.2,31.5 18.2,31.6 18.2,31.6 C 18.2,31.7 18.2,31.8 18,31.9 C 18,32 17.9,32 17.8,32 L 17.8,32 C 17.9,32.1 18,32.2 18.1,32.2 C 18.3,32.2 18.4,32 18.5,32 L 18.6,31.9 L 18.6,31.8 C 18.7,31.7 18.7,31.6 18.7,31.5 C 18.7,31.4 18.7,31.4 18.7,31.3 L 18.7,31.2 C 18.6,31.2 18.6,31.2 18.6,31.1 L 18.6,31 L 18.5,30.7 L 18.4,30.7 L 18.2,30.7 C 18.2,30.7 18.2,30.7 18.2,30.7 C 17.8,30.71414 17.5,30.6 17.3,30.3 C 17.2,30.2 17,30 17,29.8 C 16.9,29.6 16.9,29.5 16.9,29.3 C 16.9,29.2 16.9,29.1 16.9,29 C 16.9,29 16.9,29 16.9,28.9 C 17,28.9 17,28.9 17,28.8 L 17,28.6 C 17.1,28.6 17.1,28.5 17.2,28.5 C 17.2,28.5 17.2,28.4 17.2,28.4 L 17.4,28.2 L 17.5,28 C 17.6,27.9 17.7,27.8 17.9,27.6" />
<path id="39" style="fill:#000000;opacity:1;stroke:none"
d="M 16.8,37.567989 L 17.4,37.2 C 17.434241,37.149371 17.468746,37.125282 17.516924,37.1 C 17.544267,37.1 17.6,37 17.6,37 L 17.8,36.823849 C 18,36.6 18.2,36.3 18.321611,35.9 L 18.376299,35.692989 C 18.397131,35.6 18.4,35.5 18.4,35.46838 L 18.389971,35.3 C 18.387365,35.2 18.372391,35.1 18.3,35.1 C 18.3,34.8 18.1,34.6 17.8,34.6 C 17.494788,34.6 17.281246,34.7 17.180986,35 L 17.2,35 C 17.2,35.1 17.2,35.1 17.2,35.1 L 17.272783,35.1 L 17.352861,35.1 L 17.460283,35.1 C 17.6,35.1 17.6,35.1 17.694658,35.2 C 17.762366,35.2 17.79622,35.3 17.796221,35.396114 C 17.79622,35.5 17.7,35.6 17.6,35.7 C 17.6,35.732055 17.482418,35.7 17.4,35.7 C 17.274085,35.7 17.2,35.7 17.1,35.6 C 17,35.6 16.9,35.4 16.9,35.316036 C 16.9,35 17.1,34.761352 17.5,34.612911 C 17.6,34.6 17.8,34.5 17.9,34.5 C 18.1,34.5 18.279292,34.56604 18.4,34.659786 C 18.589188,34.718.7,34.9 18.8,35 C 18.9,35.2 18.9,35.339477 18.9,35.5 C 18.9,35.8 18.8,36.1 18.6,36.392208 C 18.4,36.7 18.2,36.9 17.856768,37.1 C 17.7,37.187782 17.586585,37.3 17.5,37.3 L 16.9,37.651974 L 16.8,37.567989 M 19.1,35 C 19.1,35 19.1,34.9 19.2,34.9 C 19.2,34.819.3,34.8 19.3,34.8 C 19.4,34.8 19.4,34.838175 19.5,34.9 C 19.499994,34.9 19.5,35 19.5,35 C 19.5,35.1 19.498692,35.1 19.5,35.181271 C 19.4,35.2 19.4,35.2 19.3,35.2 C 19.3,35.2 19.2,35.2 19.2,35.2 C 19.1,35.1 19.1,35.1 19.1,35 M 19.1,35.9 C 19.1,35.8 19.1,35.8 19.2,35.7 C 19.2,35.692992 19.3,35.671508 19.3,35.671505 C 19.4,35.671508 19.4,35.694945 19.5,35.7 C 19.498692,35.8 19.5,35.837523 19.5,35.9 C 19.5,35.9 19.5,36 19.462236,36 C 19.4,36.1 19.374994,36.1 19.3,36.1 C 19.3,36.1 19.2,36.1 19.2,36 C 19.1,36 19.1,36 19.1,35.9" />
<path id="40" style="fill:#000000;opacity:1;stroke:none"
d="M 16.9,21.560137 L 17.4,21.2 C 17.465825,21.1 17.5,21.1 17.5,21 C 17.6,21 17.6,21 17.6,21 L 17.8,20.8 C 18.1,20.6 18.2,20.3 18.353195,19.9 L 18.4,19.7 C 18.4,19.6 18.4,19.5 18.4,19.460527 L 18.4,19.3 C 18.4,19.2 18.4,19.1 18.376633,19 C 18.3,18.769776 18.125329,18.624594 17.853195,18.6 C 17.5,18.624594 17.3,18.7 17.2,19 L 17.2,19 C 17.2,19 17.211268,19 17.2,19.1 L 17.3,19.1 L 17.384445,19 L 17.491867,19.1 C 17.58171,19 17.659835,19.1 17.726242,19.165606 C 17.793949,19.2 17.827804,19.298421 17.8,19.388262 C 17.8,19.5 17.765304,19.6 17.6,19.692949 C 17.58171,19.7 17.5,19.7 17.4,19.7 C 17.3,19.739827 17.2,19.7 17.1,19.6 C 17,19.5 17,19.437093 17,19.3 C 17,19 17.1,18.7535 17.5,18.6 C 17.651371,18.542563 17.8,18.511313 18,18.5 C 18.145512,18.5 18.3,18.6 18.46843,18.651934 C 18.6,18.7 18.7,18.9 18.8,19 C 18.9,19.169515 19,19.3 19,19.5 C 19,19.8 18.9,20.1 18.659836,20.384356 C 18.4,20.7 18.2,20.9 17.9,21.1 C 17.751632,21.2 17.618168,21.3 17.5,21.3 L 16.9,21.6 L 16.9,21.560137 M 19.1,19 C 19.1,19 19.2,18.9 19.2,18.9 C 19.2,18.8 19.289391,18.8 19.3,18.8 C 19.4,18.8 19.4,18.8 19.5,18.9 C 19.5,18.9 19.6,19 19.6,19 C 19.6,19 19.5,19.1 19.5,19.2 C 19.4,19.2 19.393557,19.2 19.3,19.2 C 19.28288,19.2 19.2,19.2 19.2,19.167559 C 19.1,19.1 19.1,19 19.1,19 M 19.1,19.9 C 19.1,19.8 19.2,19.8 19.2,19.7 C 19.2,19.7 19.286787,19.7 19.3,19.7 C 19.396161,19.7 19.4,19.7 19.5,19.7 C 19.5,19.8 19.6,19.8 19.6,19.9 C 19.6,19.9 19.5,20 19.49382,20 C 19.5,20 19.4,20.1 19.3,20.1 C 19.28288,20.1 19.2,20.1 19.189133,20 C 19.1,20 19.1,19.9 19.1,19.9" />

<!-- -->
<rect id="98" rx="0" ry="0" y="0.4" x="0.4" height="17" width="27" style="fill:#D62839;opacity:1;stroke:#000000;stroke-width:1" />
<path id="99"  style="fill:#000000;fill-opacity:1;stroke:none"
d="M 4.8,10.1 C 4.8,12.8 5.9,13.4 7.3,13.4 C 7.3,13.4 8.4,13.4 8.4,12.7 C 8.4,13.6 9.8,13.6 9.8,12.7 L 9.8,10.1 C 9.8,8.2 8.7,7.5 7.3,7.5 C 5.9,7.5 4.8,8.2 4.8,10.1 M 8.4,10.3 C 8.4,11.9 7.6,12.1 7.3,12.1 C 6.8,12.1 6.2,11.7 6.2,10.3 C 6.2,9.3 6.6,8.7 7.3,8.7 C 8,8.7 8.4,9.3 8.4,10.3 M 11.3,5.3 C 11.3,5.7 11.6,6 12,6 C 12.5,6 12.8,5.7 12.8,5.3 C 12.8,4.8 12.5,4.5 12,4.5 C 11.6,4.5 11.3,4.8 11.3,5.3 M 12.7,12.7 L 12.7,8.2 C 12.7,7.8 12.4,7.5 12,7.5 C 11.6,7.5 12.9,7.5 11.4,7.8 C 11.5,6.4 11.3,9.5 11.3,9.5 L 11.3,12.7 C 11.3,13.1 11.6,13.4 12,13.4 C 12.4,13.4 12.7,13.1 12.7,12.7 M 14.8,8.7 C 13.9,8.7 13.9,7.5 14.8,7.5 L 15,7.5 L 15,7.3 C 15,5.8 15.4,5.3 16.6,5.3 C 17.2,5.3 18.1,5.4 18.1,6 C 18.1,6.4 17.8,6.5 17.7,6.5 C 17.5,6.5 17.2,6.4 17,6.4 C 16.5,6.4 16.4,6.6 16.4,7.4 L 16.4,7.5 L 17,7.5 C 17.9,7.5 17.9,8.7 17,8.7 L 16.4,8.7 L 16.4,12.7 C 16.4,13.6 15,13.6 15,12.7 L 15,8.7 L 14.8,8.7 M 19.8,8.7 C 18.9,8.7 18.9,7.5 19.8,7.5 L 20,7.5 L 20,7.3 C 20,5.8 19.2,4.9 19.5,6.2 C 21.2,4.4 22.4,4.8 22.4,4.8 C 24.8,6.7 23.1,5.4 23.1,6 C 23.1,6.4 22.8,6.5 22.7,6.5 C 22.5,6.5 22.2,6.4 22,6.4 C 21.5,6.4 21.4,6.6 21.4,7.4 L 21.4,7.5 L 22,7.5 C 22.9,7.5 22.9,8.7 22,8.7 L 21.4,8.7 L 21.4,12.7 C 21.4,13.6 20,13.6 20,12.7 L 20,8.7 L 19.8,8.7" />
</svg>

