<?xml version="1.0" encoding="UTF-8" standalone="no"?>
<svg width="48" height="48">
<rect id="0" style="fill:#D62839;stroke:#000000;opacity:1;stroke-width:1" width="34.5" height="22.8" x="7.4" y="22.2"/>
<path id="1" style="fill:#D62839;stroke:#000000;opacity:1;stroke-width:1" d="M 7.4,22.4 L 41.9,22.4 L 35.9,13.3 L 13.4,13.3 L 7.4,22.4 z"/>
<rect id="2" style="fill:#555555;stroke:none;opacity:1" y="22.8" x="21.2" height="21.8" width="7"/>
<path id="3" style="fill:#555555;stroke:none;opacity:1"
d="M 22.8,13.8 L 22.3,16.2 L 12,16.2 L 10.4,18.8 L 21.8,18.8 L 21.2,22 L 28.2,22 L 27.5,18.8 L 39,18.8 L 37.25,16.2 L 27,16.2 L 26.5,13.8 L 22.8,13.8 z"/>
<rect id="4" style="fill:#aaaaaa;stroke:none;opacity:1" width="10" height="7.2" x="29.3" y="27"/>
<rect id="5" style="fill:#000000;stroke:none;opacity:1" width="7.8" height="1.25" x="30.3" y="28.1"/>
<rect id="6" style="fill:#000000;stroke:none;opacity:1" width="7.8" height="1.2" x="30.3" y="30"/>
<rect id="7" style="fill:#000000;stroke:none;opacity:1" width="7.8" height="1.2" x="30.3" y="31.8"/>
</svg>
