<?xml version="1.0" encoding="UTF-8" standalone="no"?>
<svg width="48" height="48" version="1.0">
<path id="p1" style="fill:#f9f400;fill-opacity:1;stroke:#000000;stroke-width:1;stroke-opacity:1"
d="M 11.5,4.5 L 2.5,22 L 22,22.8 L 19,17.7 C 20.4,16.9 21.9,16.4 23.5,16.3 C 23.7,16.3 23.8,16.3 24,16.3 C 29.8,16.3 34.5,21 34.5,26.9 C 34.5,30.7 33.2,33.5 30.1,35.3 C 30.1,35.3 34.6,43.3 34.6,43.3 C 40.4,39.8 43.5,34.1 43.5,26.9 C 43.5,16 34.8,7.2 24,7.2 C 23.8,7.2 23.5,7.2 23.3,7.2 C 20,7.3 17.2,8.3 14.6,9.8 L 11.526473,4.5 z" />
</svg>
