<?xml version="1.0" encoding="UTF-8" standalone="no"?>
<svg width="48" height="48">
<path id="0" style="fill:#555555;opacity:1;stroke:#000000;stroke-width:1" d="M 44.4,32 C 44.4,32 44.4,39.9 44.4,39.9 L 3.5,39.9 L 3.6,32 C 3.6,32 44.4,32 44.4,32 z" />
<path id="1" style="fill:#aaaaaa;opacity:1;stroke:#000000;stroke-width:1" d="M 38.3,8.2 L 44.5,31.8 C 44.5,31.8 3.5,31.8 3.5,31.8 L 9.8,8.2 C 9.8,8.2 38.3,8.2 38.3,8.2 z" />
<rect id="2" style="fill:#aaaaaa;opacity:1;stroke:#000000;stroke-width:1" rx="0" ry="0" y="34" x="22.1" height="4" width="7" /> 
<rect id="3" style="fill:#aaaaaa;opacity:1;stroke:#000000;stroke-width:1" rx="0" ry="0" y="34" x="31.3" height="4" width="9.2" />
<path id="4" style="fill:#D62839;opacity:1;stroke:none" d="M 20.1,1.2 L 28.6,1.2 L 28.6,10.9 L 35.9,10.9 L 24.5,23.9 L 12.6,10.9 L 20.1,10.9 L 20.1,1.2 z" />
<path id="5" style="fill:#D62839;opacity:1;stroke:#000000;stroke-width:1" d="M 7.5,25.2 L 40.5,25.2 L 40.5,35.5 L 7.5,35.5 L 7.5,25.2 z" />
<path id="6" style="fill:#D62839;opacity:1;stroke:#000000;stroke-width:1" d="M 23.8,26.6 L 24.7,26.6 L 24.7,34.2 L 23.8,34.2 L 23.8,26.6 z" />
<path id="7" style="fill:#555555;opacity:1;stroke:none" d="M 9.5,27.5 L 23,27.5 L 23,33.3 L 9.5,33.3 L 9.5,27.5 z" />
</svg>
