<?xml version="1.0" encoding="UTF-8" standalone="no"?>
<svg width="48" height="48">
<rect id="r0" style="opacity:1;fill:none;fill-opacity:1;stroke:#ffffff;stroke-width:1;" width="31" height="17.6" x="8.5" y="9.4" rx="0" ry="0" />
<rect id="r1" style="fill:#555555;opacity:1;stroke:#000000;stroke-width:1" width="33.4" height="12.5" x="7.3" y="7.9" />
<rect id="r2" style="fill:#555555;opacity:1;stroke:#000000;stroke-width:1" width="41.2" height="5.7" x="3.4" y="36" />
<rect id="r3" style="fill:#aaaaaa;opacity:1;stroke:#000000;stroke-width:1" x="2.7" y="20.4" width="42.8" height="16" />
<rect id="r4" style="fill:#D62839;opacity:1;stroke:#000000;stroke-width:1" x="11.3" y="1.5" width="25.1" height="19.9" />
<rect id="r5" style="fill:#555555;opacity:1;stroke:#000000;stroke-width:1" y="21.1" x="10.3" height="11.2" width="27" />
<rect id="r6" style="fill:#aaaaaa;opacity:1;stroke:#000000;stroke-width:1" y="38.6" x="7.2" height="7" width="33.4" />
<path id="r7" style="fill:#aaaaaa;opacity:1;stroke:#000000;stroke-width:2"
d="M 16.6,5 C 10.8,5 6,9.7 6,15.6 C 6,21.4 10.8,26.1 16.6,26.1 C 19.1,26.1 21.3,25.1 23.1,23.7 C 23,24.4 23,25.1 23.7,25.7 L 31.5,32.5 C 32.4,33.2 33.7,33.1 34.5,32.3 C 35.2,31.4 35.1,30 34.3,29.3 L 26.4,22.4 C 25.9,22 25.4,21.9 24.8,22 C 26.2,20.2 27.2,18 27.2,15.6 C 27.2,9.7 22.4,5 16.6,5 z M 16.6,5.9 C 22,5.9 26,9.3 26,15.4 C 26,21.6 21.9,24.9 16.6,24.9 C 11.3,24.9 7,21 7,15.4 C 7,9.7 11.2,5.9 16.6,5.9 z"/>
</svg>

