<?xml version="1.0" encoding="UTF-8" standalone="no"?>
<svg width="48" height="48">
<path id="0" style="stroke:#000000;fill:#555555;opacity:1;stroke-width:1"
d="M 45,6 L 41,6 C 41,6 41,1 41,1 L 6,1 C 6,1 6,42 6,42 C 6,42 41,42 41,42 L 41,22 C 41,22 45,22 45,22 C 45,22 45,6 45,6 z" />
<path id="1" style="stroke:#000000;fill:#aaaaaa;opacity:1;stroke-width:1" d="M 6,1 L 6,42 L 36,46 L 36,4 L 6,1 z" />
<path id="2" style="stroke:#000000;fill:#d62839;opacity:1;stroke-width:1" d="M 6,1 L 6,42 L 28,48 L 28,6 L 6,1 z" />
</svg>

