<?xml version="1.0" encoding="UTF-8" standalone="no"?>
<svg width="48" height="48">
<path id="1" style="fill:#555555;opacity:1;stroke:#000000;stroke-width:1" d="M 44.4,32 C 44.4,32 44.4,39.9 44.4,39.9 L 3.5,39.9 L 3.6,32 C 3.6,32 44.4,32 44.4,32 z" />
<path id="2" style="fill:#aaaaaa;opacity:1;stroke:#000000;stroke-width:1" d="M 38.3,8.2 L 44.5,31.8 C 44.5,31.8 3.5,31.8 3.5,31.8 L 9.8,8.2 C 9.8,8.2 38.3,8.2 38.3,8.2 z"/>
<rect id="3" style="fill:#aaaaaa;opacity:1;stroke:#000000;stroke-width:1" width="7" height="4" x="22.1" y="34" ry="0" rx="0" />
<rect id="4" style="fill:#aaaaaa;opacity:1;stroke:#000000;stroke-width:1" width="9.2" height="4" x="31.3" y="34" ry="0" rx="0" />
<path id="5" style="fill:#D62839;opacity:1;stroke:none" d="M 20.1,2.7 L 28.6,2.7 L 28.6,12.5 L 35.9,12.5 L 24.5,25.5 L 12.6,12.5 L 20.1,12.5 L 20.1,2.7 z" />
</svg>
