<?xml version="1.0" encoding="UTF-8" standalone="no"?>
<svg width="48" height="48">
<path id="0" style="fill:#aaaaaa;opacity:1;stroke:#000000;stroke-width:1"
d="M 24.3,7.2 C 24.3,7.2 41.5,24.5 41.5,24.5 C 41.5,24.5 41.4,44.7 41.4,44.7 L 6.4,44.7 L 6.4,24.5 L 24.3,7.2 z"/>
<path id="1" style="fill:#D62839;opacity:1;stroke:#000000;stroke-width:1" d="M 23,29 L 22.9,44.6 L 11.1,44.6 L 11,29 L 23,29 z"/>
<path id="2" style="fill:#000000;opacity:1;stroke:none" 
d="M 19.5,35.9 C 20.1,35.9 20.7,36.5 20.7,37.1 C 20.7,37.8 20.1,38.4 19.5,38.4 C 18.8,38.4 18.2,37.8 18.3,37.1 C 18.2,36.5 18.8,35.9 19.5,35.9 z"/>
<path id="3" style="fill:#ff0000;opacity:1;stroke:none"
d="M 24.4,11.6 L 43.374808,28.7 L 43.9,29.1 L 44.3,28.9 L 43.9,28.2 L 43.6,28 L 24.4,12.4 L 5,28.1 L 4.8,28.3 L 4.6,29 L 5,29.1 L 5.4,28.8 L 24.4,11.6 z"/>
<path id="4" style="fill:#D62839;opacity:1;stroke:#000000;stroke-width:1"
d="M 24.3,2.3 L 2.4,20.4 L 1.8,27.5 L 3.8,29.6 C 3.8,29.6 24.2,12.4 24.4,12.3 L 44,29.8 L 46,27.5 L 44.4,20.4 L 24.4,2.2 L 24.3,2.3 z"/>
<rect id="5" style="fill:#D62839;opacity:1;stroke:#000000;stroke-width:1" width="10" height="10" x="26.5" y="28.5"/>
</svg>

