<?xml version="1.0" encoding="UTF-8" standalone="no"?>
<svg width="48" height="48">
<circle id="e1" style="fill:#D62839;stroke:none;opacity:1" cx="24" cy="24" r="22.5" />
<path id="p2" style="fill:#555555;opacity:1;stroke:none"
d="M 24.4,11 C 18.7,10.9 13.1,13.7 10,18.8 L 15.4,22 C 18,17.6 24.2,16 29,18.6 C 30.2,19.3 31,20 31.8,21 L 28.4,24.4 L 39,24.4 L 39,13.7 L 36.2,16.5 C 35,15.2 33.6,14 32,13.1 C 29.6,11.8 27,11.1 24.4,11 z M 9.6,24.8 L 9.6,35.5 L 12.4,32.7 C 13.6,34 15,35.2 16.7,36 C 24.3,40.3 34.1,37.8 38.6,30.4 L 33.2,27.1 C 30.5,31.6 24.5,33.2 19.7,30.6 C 18.5,29.9 17.6,29.2 16.9,28.2 L 20.3,24.8 L 9.6,24.8 z " />
</svg>
