<?xml version="1.0" encoding="UTF-8" standalone="no"?>
<svg height="48" width="48">
<g groupmode="layer" label="Layer 1" id="layer1" transform="matrix(0.8784211,0,0,0.8784211,3.0208964,2.9192107)">
<path id="path7664" style="fill:#f9f400;fill-opacity:1;fill-rule:evenodd;stroke:#000000;stroke-width:1;stroke-linecap:butt;stroke-linejoin:miter;stroke-miterlimit:4;stroke-dasharray:none;stroke-opacity:1"
d="M 17.40625,2.59375 C 8.2903516,5.4222921 1.625,13.832987 1.625,23.875 C 1.625,36.226 11.649,46.25 24,46.25 C 36.351,46.25 46.375,36.226 46.375,23.875 C 46.375,13.857108 39.738298,5.4739221 30.65625,2.625 C 30.65625,2.625 30.4375,13 30.4375,13 C 34.048285,15.244047 36.59375,19.063802 36.59375,23.625 C 36.593749,30.644147 30.894147,36.34375 23.875,36.34375 C 16.855852,36.343749 11.15625,30.644148 11.15625,23.625 C 11.15625,18.94246 13.821948,15.01931 17.59375,12.8125 L 17.40625,2.59375 z" />
<rect id="rect5282" style="fill:#f9f400;fill-opacity:1;stroke:#000000;stroke-width:1;stroke-miterlimit:4;stroke-dasharray:none;stroke-opacity:1"
width="9.7246799" height="20.526018" x="19.181581" y="0.02252667" rx="0" ry="0" /> </g>
<!-- Jakub Steiner -->
</svg>
