<?xml version="1.0" encoding="UTF-8" standalone="no"?>
<svg height="48" width="48">
<path id="0" style="fill:#00b2ec;stroke:#000000;stroke-width:1"
d="M 42.1,18.2 C 39.7,10.4 32.6,4.8 24,4.8 C 13.5,4.8 5,13.3 5,23.8 C 5,34.3 13.5,42.8 24,42.8 C 32.5,42.8 39.7,37.2 42,29.5 C 42,29.5 33.3,29.3 33.3,29.3 C 31.4,32.3 28.1,34.5 24.2,34.5 C 18.3,34.5 13.4,29.7 13.4,23.7 C 13.4,17.7 18.3,12.9 24.2,12.9 C 28.2,12.9 31.5,15.2 33.4,18.4 L 42.1,18.2 z"/>
<path id="1" style="fill:#00b2ec;stroke:#000000;stroke-width:1"
d="M 34.174,20.4 L 34.1,27.6 L 42.5,27.6 L 42.5,31.2 L 49.1,24 L 42.5,16.7 L 42.5,20.4 L 34.1,20.4 z"/>
  <!-- Jakub Steiner - http://jimmac.musichall.cz -->
</svg>
