<?xml version="1.0" encoding="UTF-8" standalone="no"?>
<svg width="48" height="48">
<path id="1" style="opacity:1;fill:#555555;stroke:#000000;stroke-width:1" d="M 16.9,38.2 L 16,41.1 L 31.9,41.1 L 31.1,38.2 L 16.9,38.2 z"/>
<rect id="2" style="opacity:1;fill:#555555;stroke:#000000;stroke-width:1" width="8.2" height="7.6" x="19.9" y="31.6"/>
<rect id="3" style="opacity:1;fill:#555555;stroke:#000000;stroke-width:1" width="45" height="30" x="1.5" y="4.2" rx="0" ry="0"/>
<rect id="4" style="opacity:1;fill:#D62839;stroke:#000000;stroke-width:1" width="39" height="20" x="4.6" y="7"/>
<path id="5" style="fill:#000000;opacity:1;stroke:none"
d="M 18.9,16 L 18.9,13.2 C 18.9,10.3 20.9,9 23.9,9 C 27,9 29,10.3 29,13.3 L 29,16 L 27.1,16 L 27.1,14 C 27,13.3 27.3,10.9 24,10.9 C 20.6,10.9 20.8,13.3 20.8,14 L 20.8,16 L 18.9,16 z"/>
<rect id="6" style="fill:#000000;opacity:1;stroke:none" ry="0" rx="0" y="17" x="16.5" height="7" width="14.9"/>
</svg>
