<?xml version="1.0" encoding="UTF-8" standalone="no"?>
<svg width="48" height="48" >
<path id="1" style="fill:#e3007f;stroke:#000000;fill-opacity:1;stroke-width:1;stroke-opacity:1"
d="M 24,3.3 C 13.4,3.3 4.7,11.7 4.1,22.1 L 13.2,22.1 C 13.7,16.7 18.4,12.4 24,12.4 C 27.7,12.4 31,14.3 33,17.1 C 30.5,20 27.4,23.5 27.4,23.5 L 44,23.5 L 44,4.5 C 44,4.5 41.2,7.8 39,10.2 C 35.4,6 30,3.3 24,3.3 z M 20.4,24.5 L 4.2,24.6 L 4.1,43.7 C 4.1,43.7 7.2,40 9.7,37.1 C 13.3,40.9 18.4,43.2 24,43.2 C 34.2,43.2 42.7,35.5 43.8,25.6 L 34.7,25.6 C 33.6,30.5 29.2,34.1 24,34.1 C 19.6,34.1 17.2,32.8 15.2,30.6 C 17.5,28 20.4,24.5 20.4,24.5 z" />
<!-- Jakub Steiner -->    
</svg>
