<?xml version="1.0" encoding="UTF-8" standalone="no"?>
<svg height="48" width="48" >
<path id="1" style="fill:#dd0000;opacity:1;stroke:#000000;stroke-width:1"
d="M 46.375,23.9 C 46.4,36.2 36.4,46.25 24,46.3 C 11.6,46.3 1.6,36.2 1.6,23.9 C 1.6,11.5 11.6,1.5 24,1.5 C 36.4,1.5 46.4,11.5 46.4,23.9 z M 36.6,23.6 C 36.6,30.6 30.9,36.3 23.9,36.3 C 16.9,36.3 11.2,30.6 11.2,23.6 C 11.2,16.6 16.9,10.9 23.9,10.9 C 30.9,10.9 36.6,16.6 36.6,23.6 z"/>
<rect id="2" style="fill:#dd0000;opacity:1;stroke:#000000;stroke-width:1" width="9.7" height="20.5" x="18.9" y="13.4" rx="0" ry="0" />
<!-- Jakub Steiner -->
</svg>
