<?xml version="1.0" encoding="UTF-8" standalone="no"?>
<svg height="48" width="48">
<path id="p0" style="fill:#f08000;fill-opacity:1;stroke:#000000;stroke-width:1;stroke-opacity:1"
d="M 17.40625,2.59375 C 8.2903516,5.4222921 1.625,13.832987 1.625,23.875 C 1.625,36.226 11.649,46.25 24,46.25 C 36.351,46.25 46.375,36.226 46.375,23.875 C 46.375,13.857108 39.738298,5.4739221 30.65625,2.625 C 30.65625,2.625 30.4375,13 30.4375,13 C 34,15.244047 36.59375,19 36.59375,23.625 C 36.593749,30.644147 30.894147,36.34375 23.875,36.34375 C 16.855852,36.343749 11.15625,30.644148 11.15625,23.625 C 11.15625,18.94246 13.821948,15 17.59375,12.8125 L 17.40625,2.59375 z" />
<rect id="r1" style="fill:#f08000;fill-opacity:1;stroke:#000000;stroke-width:1;stroke-opacity:1" width="9.7" height="20.5" x="19.1" y="0" rx="0" ry="0" />
<!-- Jakub Steiner -->
</svg>
