<?xml version="1.0" encoding="UTF-8" standalone="no"?>
<svg width="48" height="48">
<path id="0" style="opacity:1;fill:none;stroke:#000000;stroke-width:1"
d="M 35.5,40 C 26.3,33.2 46.3,37.6 44.4,33.8 C 42.5,30 24.5,37.2 24.6,33 C 24.7,29 33.6,35.2 30.7,23.5" />
<path id="1" style="opacity:1;fill:#555555;stroke:#000000;stroke-width:1" d="M 16.9,34.5 L 16,37.4 L 31.9,37.4 L 31.1,34.5 L 16.9,34.5 z " />
<rect id="2" style="opacity:1;fill:#555555;stroke:#000000;stroke-width:1;" width="8.2" height="7.6" x="19.9" y="27.8" />
<rect id="3" style="opacity:1;fill:#555555;stroke:#000000;stroke-width:1;" width="45" height="30" x="1.5" y="0.5" rx="0" ry="0" />
<rect id="4" style="opacity:1;fill:#D62839;stroke:#000000;stroke-width:1;" width="39" height="20" x="4.6" y="3.3" />
<path id="5" style="opacity:1;fill:#555555;stroke:#000000;stroke-width:1;" d="M 3.5,38.6 L 44,38.6 L 47.5,46.5 L 0.5,46.5 L 3.5,38.6 z" />
<path id="6" style="opacity:1;fill:#aaaaaa;stroke:#000000;stroke-width:1;" d="M 5.5,38.6 L 42,38.6 L 44,43.5 L 4,43.5 L 5.5,38.6 z" />
</svg>
