<?xml version="1.0" encoding="UTF-8" standalone="no"?>
<svg width="48" height="48">
<path id="1" style="fill:#555555;stroke:#000000;stroke-width:1;opacity:1" d="M 2.8,25.3 C 2.8,29.5 2.9,37.9 2.9,37.9 L 46.2,37.9 L 46.1,25.3" />
<path id="2" style="fill:#aaaaaa;stroke:#000000;stroke-width:1;opacity:1"
d="M 2.8,25.3 C 2.8,25.3 7.377482,5.4548205 7.377482,5.5 C 7.6,5.5 41.4,5.5 41.4,5.5 L 46.1,25.3 L 2.8,25.3 z" />
<path id="3" style="fill:#aaaaaa;stroke:#000000;stroke-width:1;opacity:1"
d="M 42.8,32.2 L 6.6,32.2 C 6.6,32.2 6.6,28.8 6.6,28.8 L 42.8,28.8 C 42.8,28.8 42.8,32.2 42.8,32.2 z" />
<path id="4" style="fill:#aaaaaa;stroke:#000000;stroke-width:1;opacity:1"
d="M 42.5,36.4 L 38.1,36.4 C 38.1,36.4 38.1,34.6 38.1,34.6 L 42.5,34.6 C 42.5,34.6 42.5,36.4 42.5,36.4 z" />
<path id="5" style="fill:#aaaaaa;stroke:#000000;stroke-width:1;opacity:1"
d="M 8.6,29.732548 C 8.4,30.35418 8.3,31 8.3,31.7 C 8.3,37.6 15.5,42.4 24.4,42.4 C 33.3,42.4 40.4,37.6 40.4,31.7 C 40.4,31 40.3,30.4 40.1,29.7 L 8.6,29.732548 z" />
<path id="6" style="fill:#555555;stroke:none;opacity:1"
d="M 17,29.3 C 16.3,30.1 15.7,30.6 15.7,31.7 C 15.7,34.9 19.7,37.5 24.4,37.5 C 29.3,37.5 33.1,34.8 33.1,31.7 C 33.1,30.6 32.6,30.1 31.8,29.3 L 26.6,29.3 C 28.3,29.8 29.2,30.4 29.2,31.7 C 29.2,33.4 27,34.8 24.4,34.8 C 21.8,34.8 19.7,33.4 19.7,31.7 C 19.7,30.4 20.6,29.8 22.2,29.3 L 17,29.3 z" />
</svg>
