<?xml version="1.0" encoding="UTF-8" standalone="no"?>
<svg width="48" height="48">
<path id="c1" style="fill:#aaaaaa;stroke:#000000;opacity:1"
d="M 24.3,4.2 C 12.8,4.2 3.5,13.5 3.5,25 C 3.5,36.5 12.8,45.8 24.3,45.8 C 35.9,45.8 45.2,36.5 45.2,25 C 45.2,13.5 35.9,4.2 24.3,4.2 L 24.3,4.2 z M 24.3,30 C 21.6,30 19.3,27.7 19.3,25 C 19.3,22.3 21.6,20 24.3,20 C 27,20 29.3,22.3 29.3,25 C 29.3,27.7 27,30 24.3,30 z "/>
<path id="c2" style="fill:#555555;stroke:none"
d="M 24.3,12.7 C 17.5,12.7 12,18.3 12,25 C 12,31.9 17.6,37.3 24.3,37.3 C 31.2,37.3 36.7,31.7 36.7,25 C 36.7,18.1 31,12.7 24.3,12.7 L 24.3,12.7 z M 24.3,31.7 C 20.7,31.7 17.6,28.7 17.6,25 C 17.6,21.3 20.7,18.3 24.3,18.3 C 28,18.3 31,21.3 31,25 C 31,28.7 28,31.7 24.3,31.7 z"/>
<!-- Jakub Steiner -->
</svg>

