<?xml version="1.0" encoding="UTF-8" standalone="no"?>
<svg width="48" height="48">
<path id="path2961" style="fill:#555555;stroke:#000000;opacity:1"
d="M 47.3991,30 C 47.3991,32.261027 39.570868,34 29.914254,34 C 20.25764,34 12.429408,32.261027 12.429408,30 C 12.429408,27.878391 20.25764,26.101976 29.914254,26.101976 C 39.570868,26.101976 47.3991,27.878391 47.3991,30 L 47.3991,30 z" />
<path id="path2963" style="fill:#none;stroke:#000000;opacity:1"
d="M 38.414626,28.560294 C 32.414626,23.560294 45.266095,27.614702 44.414626,25 C 43.414626,22 31.336657,26.445023 31.414626,23.560294" />
<path id="path2965" style="fill:#aaaaaa;stroke:#000000;opacity:1"
d="M 20.443295,25.455256 L 19.350493,27.320851 L 40.47801,27.320843 L 39.385208,25.455256 L 20.443295,25.455256 z" />
<path id="path2975" style="fill:#555555;stroke:#000000;opacity:1"
d="M 47.914275,33.183267 C 47.914275,33.9 39.855395,34.498546 29.914262,34.498546 C 19.973129,34.498546 11.9,33.9 11.9,33.2 C 11.9,32.456859 19.973129,31.867988 29.9,31.867988 C 39.855395,31.867988 47.9,32.456859 47.9,33.183267 L 47.914275,33.183267 z" />
<path id="path2977" style="fill:#555555;stroke:#000000;opacity:1"
d="M 14.91425,27.49856 L 44.91425,27.49856 L 47.41425,34.49856 L 12.41425,34.49856 L 14.91425,27.49856 z" />
<path id="path2981" style="fill:#aaaaaa;stroke:#000000;opacity:1"
d="M 17.258,27.49856 L 42.60175,27.49856 L 44.10175,31.49856 L 15.758,31.49856 L 17.258,27.49856 z" />
<rect id="rect2987" style="fill:#555555;stroke:#000000;opacity:1" y="1.5" x="13.415899" height="21" width="33" />
<rect id="rect2991" style="fill:#555555;stroke:#000000;opacity:1" y="3.4797039" x="15.422814" height="14" width="29" />
<rect id="rect47160" style="fill:#aaaaaa;stroke:#000000;opacity:1" y="3.3" x="15.2" height="14.2" width="29.2" />
<path id="path2159" style="fill:#555555;stroke:#000000;opacity:1"
d="M 36.484854,42 C 36.484854,44.262467 28.656622,46 19,46 C 9.3,46 1.5,44.262467 1.5,42 C 1.5,39.879831 9.3,38.1 19,38.1 C 28.656622,38.1 36.484854,39.879831 36.484854,42 L 36.484854,42 z" />
<path id="path2161" style="fill:none;stroke:#000000;opacity:1" d="M 27.5,40.5 C 21.5,35.5 34.3,39.6 33.5,37 C 32.5,34 20.4,38.4 20.5,35.5" />
<path id="path2163" style="fill:#aaaaaa;stroke:#000000;opacity:1" d="M 13.2,37.1 L 12.6,38.9 L 25.3,38.9 L 24.7,37.1 L 13.2,37.1 z" />
<rect id="rect2169" style="fill:#aaaaaa;stroke:#000000;opacity:1" y="32" x="15.6" height="5.1" width="6.6" />
<path id="path2185" style="fill:#555555;stroke:#000000;opacity:1"
d="M 37,45.2 C 37,45.9 28.9,46.5 19,46.5 C 9,46.5 1,45.9 1,45.2 C 1,44.4 9,43.8 19,43.8 C 28.9,43.8 37,44.4 37,45.1 L 37,45.2 z" />
<path id="path2187" style="fill:#555555;stroke:#000000;opacity:1" d="M 4,39.5 L 34,39.5 L 36.5,46.5 L 1.5,46.5 L 4,39.5 z" />
<path id="path2191" style="fill:#aaaaaa;stroke:#000000;opacity:1" d="M 6.3,39.5 L 31.6875,39.5 L 33.2,43.5 L 4.8,43.5 L 6.3,39.5 z" />
<rect id="rect2173" style="fill:#555555;stroke:#000000;opacity:1" y="13.5" x="2.5" height="21" width="33" />
<rect id="rect2197" style="fill:#D62839;stroke:#000000;opacity:1" y="15.3" x="4.3" height="14.2" width="29.2" />
<!-- Ulisse Perusin -->
</svg>

