<?xml version="1.0" encoding="UTF-8" standalone="no"?>
<svg width="48" height="48">
<path id="p01" style="fill:#555555;stroke:#000000;opacity:1"
d="M 47.4,30 C 47.4,32.261027 39.570868,34 29.9,34 C 20.25764,34 12.429408,32.261027 12.429408,30 C 12.429408,27.878391 20.25764,26.101976 29.9,26.101976 C 39.570868,26.101976 47.4,27.878391 47.4,30 L 47.4,30 z" />
<path id="p02" style="fill:none;stroke:#000000;opacity:1"
d="M 38.4,28.560294 C 32.4,23.560294 45.266095,27.6 44.4,25 C 43.4,22 31.3,26.4 31.4,23.560294" />
<path id="p03" style="fill:#aaaaaa;stroke:#000000;opacity:1"
d="M 20.4,25.455256 L 19.350493,27.320851 L 40.47801,27.3 L 39.385208,25.455256 L 20.443295,25.455256 z" />
<path id="p04" style="fill:#555555;stroke:#000000;opacity:1"
d="M 47.9,33.2 C 47.9,33.9 39.9,34.498546 29.9,34.498546 C 19.99,34.498546 11.9,33.9 11.9,33.2 C 11.9,32.456859 19.99,31.867988 29.9,31.867988 C 39.9,31.867988 47.9,32.456859 47.9,33.2 L 47.9,33.2 z" />
<path id="p05" style="fill:#555555;stroke:#000000;opacity:1"
d="M 14.91425,27.49856 L 44.91425,27.49856 L 47.41425,34.5 L 12.4,34.49856 L 14.91425,27.49856 z" />
<rect id="r06" style="fill:#555555;stroke:#000000;opacity:1" y="1.5" x="13.415899" height="20.99" width="32.998352" />
<rect id="r07" style="fill:#555555;stroke:#000000;opacity:1" y="3.5" x="15.422814" height="14" width="28.99" />
<rect id="r08" style="fill:#aaaaaa;stroke:#000000;opacity:1" y="3.3" x="15.214956" height="14.254367" width="29.3" />
<path id="p09" style="fill:#555555;stroke:#000000;opacity:1"
d="M 36.5,42 C 36.5,44.262467 28.656622,46 19,46 C 9.3,46 1.5,44.262467 1.5,42 C 1.5,39.9 9.3,38.1 19,38.1 C 28.7,38.1 36.5,39.9 36.5,42 L 36.5,42 z" />
<path id="p161" style="fill:none;stroke:#000000;opacity:1"
d="M 27.5,40.561734 C 21.500376,35.561734 34.351845,39.616142 33.5,37 C 32.5,34 20.4,38.4 20.5,35.6" />
<path id="p163" style="fill:#aaaaaa;stroke:#000000;opacity:1" d="M 13.3,37.137198 L 12.613525,38.9 L 25.386478,38.9 L 24.725808,37.137198 L 13.3,37.1 z" />
<rect id="rect2169" style="fill:#555555;stroke:#000000;opacity:1" y="32" x="15.697406" height="5.1" width="6.6" />
<path id="p185" style="fill:#555555;stroke:#000000;opacity:1"
d="M 37,45.2 C 37,45.9 28.9,46.5 19,46.5 C 9,46.5 1,45.911115 1,45.184707 C 1,44.5 9,43.869428 19,43.9 C 29,43.9 37,44.6 37,45.2 L 37,45.2 z" />
<path id="p187" style="fill:#555555;stroke:#000000;opacity:1" d="M 4,39.5 L 34,39.5 L 36.5,46.5 L 1.5,46.5 L 4,39.5 z" />
<path id="p191" style="fill:#aaaaaa;stroke:#000000;opacity:1" d="M 6.34375,39.5 L 31.7,39.5 L 33.2,43.5 L 4.84375,43.5 L 6.34375,39.5 z" />
<rect id="rect2173" style="fill:#555555;stroke:#000000;opacity:1" y="13.5" x="2.5016479" height="20.99" width="32.998352" />
<rect id="rect2197" style="fill:#aaaaaa;stroke:#000000;opacity:1" y="15.3" x="4.3290663" height="14.254367" width="29.279364" />
<path id="p786" style="fill:#D62839;stroke:#000000;opacity:1"
d="M 47.8,36.1 C 47.8,41.4 43.5,45.7 38.2,45.7 C 32.9,45.7 28.6,41.4 28.6,36.1 C 28.6,30.8 32.9,26.5 38.2,26.5 C 43.5,26.5 47.8,30.8 47.8,36.1 L 47.8,36.1 z" />
<path id="rect3558" style="fill:#000000;stroke:none;opacity:1"
d="M 32.517296,33 L 35.6,36.1 L 32.5,39.2 L 35.2,41.9 L 38.3,38.8 L 41.4,41.9 L 44,39.2 L 41,36.1 L 44,33 L 41.4,30.3 L 38.3,33.4 L 35.2,30.3 L 32.5,33 z" />
<!-- Ulisse Perusin -->
</svg>

