<?xml version="1.0" encoding="UTF-8" standalone="no"?>
<svg width="48" height="48">
<path id="01" style="fill:#555555;stroke:#000000;opacity:1"
d="M 47.4,30 C 47.3991,32.3 39.6,34 29.9,34 C 20.3,34 12.4,32.3 12.4,30 C 12.4,27.9 20.3,26.1 29.9,26.1 C 39.6,26.1 47.4,27.9 47.4,30 L 47.3991,30 z" />
<path id="02" style="fill:none;stroke:#000000;opacity:1"
d="M 38.4,28.6 C 32.4,23.6 45.3,27.6 44.4,25 C 43.4,22 31.3,26.4 31.4,23.6" />
<path id="03" style="fill:#aaaaaa;stroke:#000000;opacity:1"
d="M 20.4,25.5 L 19.4,27.3 L 40.5,27.3 L 39.4,25.5 L 20.4,25.5 z" />
<path id="04" style="fill:#555555;stroke:#000000;opacity:1"
d="M 47.9,33.2 C 47.9,33.9 39.9,34.5 29.9,34.5 C 20,34.5 11.9,33.9 11.9,33.2 C 11.9,32.5 20,31.9 29.9,31.9 C 39.9,31.9 47.9,32.5 47.9,33.2 L 47.9,33.2 z" />
<path id="05" style="fill:#555555;stroke:#000000;opacity:1" d="M 14.9,27.5 L 44.9,27.5 L 47.4,34.5 L 12.4,34.5 L 14.9,27.5 z" />
<path id="06" style="fill:#aaaaaa;stroke:#000000;opacity:1" d="M 17.3,27.5 L 42.6,27.5 L 44.1,31.5 L 15.8,31.5 L 17.3,27.5 z" />
<rect id="07" style="fill:#555555;stroke:#000000;opacity:1" y="1.5" x="13.4" height="21" width="33" />
<rect id="08" style="fill:#555555;stroke:#000000;opacity:1" y="3.5" x="15.4" height="14" width="29" />
<rect id="09" style="fill:#D62839;stroke:#000000;opacity:1" y="3.3" x="15.2" height="14.3" width="29.3" />
<path id="10" style="fill:#555555;stroke:#000000;opacity:1" ry="7" rx="23.5" cy="41" cx="24"
d="M 36.5,42 C 36.5,44.3 28.7,46 19,46 C 9.3,46 1.5,44.3 1.5,42 C 1.5,39.9 9.3,38.1 19,38.1 C 28.7,38.1 36.5,39.9 36.5,42 L 36.5,42 z"  />
<path id="11" style="fill:none;opacity:1;stroke:#000000;stroke-width:1"
d="M 27.5,40.6 C 21.5,35.6 34.4,39.6 33.5,37 C 32.5,34 20.4,38.4 20.5,35.6" />
<path id="12" style="fill:#aaaaaa;stroke:#000000;opacity:1" d="M 13.3,37.1 L 12.6,38.9 L 25.4,38.9 L 24.7,37.1 L 13.3,37.1 z" />
<rect id="13" style="fill:#555555;stroke:#000000;opacity:1" y="32" x="15.7" height="5.1" width="6.6" />
<path id="14" style="fill:#555555;stroke:#000000;opacity:1"
d="M 37,45.2 C 37,45.9 28.9,46.5 19,46.5 C 9,46.5 1,45.9 1,45.2 C 1,44.5 9,43.9 19,43.9 C 28.9,43.9 37,44.5 37,45.2 L 37,45.2 z" />
<path id="15" style="fill:#555555;stroke:#000000;opacity:1" d="M 4,39.5 L 34,39.5 L 36.5,46.5 L 1.5,46.5 L 4,39.5 z" />
<path id="16" style="fill:#aaaaaa;stroke:#000000;opacity:1" d="M 6.3,39.5 L 31.7,39.5 L 33.2,43.5 L 4.8,43.5 L 6.3,39.5 z" />
<rect id="17" style="fill:#555555;stroke:#000000;opacity:1" y="13.5" x="2.5" height="21" width="33" />
<rect id="18" style="fill:#aaaaaa;stroke:#000000;opacity:1" y="15.3" x="4.3" height="14.3" width="29.3" />
<!-- Ulisse Perusin -->
</svg>

