<?xml version="1.0" encoding="UTF-8" standalone="no"?>
<svg width="48" height="48">
<path id="00" style="fill:#555555;stroke:#000000;opacity:1"
d="M 47.3991,30 C 47.3991,32.261027 39.570868,34 29.914254,34 C 20.25764,34 12.429408,32.261027 12.429408,30 C 12.429408,27.878391 20.25764,26.101976 29.914254,26.101976 C 39.6,26.101976 47.3991,27.878391 47.3991,30 L 47.3991,30 z" />
<path id="01" style="fill:none;stroke:#000000;opacity:1"
d="M 38.414626,28.560294 C 32.414626,23.560294 45.266095,27.614702 44.414626,25 C 43.414626,22 31.336657,26.445023 31.414626,23.560294" />
<path id="02" style="fill:#aaaaaa;stroke:#000000;opacity:1"
d="M 20.443295,25.455256 L 19.350493,27.320851 L 40.47801,27.320843 L 39.385208,25.455256 L 20.443295,25.455256 z" />
<path id="03" style="fill:#555555;stroke:#000000;opacity:1"
d="M 47.914275,33.183267 C 47.914275,33.909675 39.855395,34.498546 29.914262,34.498546 C 19.973129,34.498546 11.914249,33.909675 11.914249,33.183267 C 11.914249,32.456859 19.973129,31.867988 29.914262,31.867988 C 39.855395,31.867988 47.914275,32.456859 47.914275,33.183267 L 47.914275,33.183267 z" />
<path id="04" style="fill:#555555;stroke:#000000;opacity:1"
d="M 14.91425,27.49856 L 44.91425,27.49856 L 47.41425,34.49856 L 12.41425,34.49856 L 14.91425,27.49856 z" />
<path id="05" style="fill:#aaaaaa;stroke:#000000;opacity:1"
d="M 17.258,27.49856 L 42.60175,27.49856 L 44.10175,31.49856 L 15.758,31.49856 L 17.258,27.49856 z" />
<rect id="06" style="fill:#555555;stroke:#000000;opacity:1" y="1.5" x="13.415899" height="20.998556" width="32.998352" />
<rect id="07" style="fill:#555555;stroke:#000000;opacity:1" y="3.5" x="15.422814" height="14" width="28.974249" />
<rect id="08" style="fill:#aaaaaa;stroke:#000000;opacity:1" y="3.3278797" x="15.214956" height="14.254367" width="29.279364" />
<path id="09" style="fill:#555555;stroke:#000000;opacity:1"
d="M 36.484854,42 C 36.484854,44.262467 28.656622,46 19,46 C 9.3433939,46 1.515162,44.262467 1.515162,42 C 1.515162,39.879831 9.3433939,38.103416 19,38.103416 C 28.656622,38.103416 36.484854,39.879831 36.484854,42 L 36.484854,42 z" />
<path id="10" style="fill:none;stroke:#000000;opacity:1"
d="M 27.500376,40.561734 C 21.500376,35.561734 34.351845,39.616142 33.500376,37 C 32.500376,34 20.422407,38.446463 20.500376,35.561734" />
<path id="11" style="fill:#aaaaaa;stroke:#000000;opacity:1"
d="M 13.274195,37.137198 L 12.613525,38.900824 L 25.386478,38.900817 L 24.725808,37.137198 L 13.274195,37.137198 z" />
<rect id="12" style="fill:#555555;stroke:#000000;opacity:1" y="32" x="15.697406" height="5.124732" width="6.6277013" />
<path id="13" style="fill:#555555;stroke:#000000;opacity:1"
d="M 37,45.184707 C 37,45.911115 28.941149,46.499986 19,46.499986 C 9,46.499986 1,45.911115 1,45.184707 C 1,44.458299 9,43.869428 19,43.869428 C 28.941149,43.869428 37,44.458299 37,45.184707 L 37,45.184707 z M 4,39.5 L 34,39.5 L 36.5,46.5 L 1.5,46.5 L 4,39.5 z" />
<path id="14" style="fill:#aaaaaa;stroke:#000000;opacity:1" d="M 6.34375,39.5 L 31.6875,39.5 L 33.1875,43.5 L 4.84375,43.5 L 6.34375,39.5 z" />
<rect id="15" style="fill:#555555;stroke:#000000;opacity:1" y="13.501444" x="2.5016479" height="20.998556" width="32.998352" />
<rect id="16" style="fill:#aaaaaa;stroke:#000000;opacity:1" y="15.27907" x="4.3290663" height="14.254367" width="29.279364" />
<path id="17" style="fill:#D62839;stroke:#000000;opacity:1"
d="M 47.67857,36.307762 C 47.67857,41.608999 43.381069,45.9065 38,45.9065 C 32.778598,45.9065 28.481097,41.608999 28.481097,36.307762 C 28.481097,31 32.778598,26.709024 38,26.709024 C 43.381069,26.709024 47.67857,31 47.67857,36.307762 L 47.67857,36.307762 z" />
<rect id="18" style="fill:#000000;stroke:none;opacity:1" y="34.4" x="31.9" height="3.8" width="12.5" />
<!-- Ulisse Perusin -->
</svg>


