<?xml version="1.0" encoding="UTF-8" standalone="no"?>
<svg width="48" height="48">
<rect id="0" style="fill:#555555;stroke:#000000;stroke-width:1;opacity:1" y="8.5" x="7.5" height="19.5" width="33" />
<rect id="1" style="fill:none;stroke:#000000;stroke-width:1;opacity:1" y="9.4" x="8.4" height="17.5" width="31" />
<rect id="2" style="fill:#555555;stroke:#000000;stroke-width:1;opacity:1" width="33.3" height="12.5" x="7.2" y="8" />
<rect id="3" style="fill:#555555;stroke:#000000;stroke-width:1;opacity:1" width="41.2" height="5.7" x="3.3" y="36" />
<rect id="4" style="fill:#aaaaaa;stroke:#000000;stroke-width:1;opacity:1" y="20.4" x="2.7" height="16" width="42.8" />
<rect id="5" style="fill:#D62839;stroke:#000000;stroke-width:1;opacity:1" y="1.4" x="11.3" height="19.8" width="25.1" />
<rect id="6" style="fill:#555555;stroke:#000000;stroke-width:1;opacity:1" y="21" x="10.2" height="11.2" width="27" />
<rect id="7" style="fill:#aaaaaa;stroke:#000000;stroke-width:1;opacity:1" y="38.5" x="7.1" height="7" width="33.4" />
<path id="8" style="fill:#D62839;stroke:#000000;stroke-width:1;opacity:1"
d="M 47.7,36.2 C 47.7,41.7 43.2,46.2 37.7,46.2 C 32.2,46.2 27.7,41.7 27.7,36.2 C 27.7,30.6 32.2,26.2 37.7,26.2 C 43.2,26.2 47.7,30.7 47.7,36.2 L 47.7,36.2 z" />
<rect id="9" style="fill:#000000;stroke:#000000;stroke-width:1;opacity:1" y="34.2" x="31.3" height="4.1" width="12.8" />
<!-- authors: Lapo Calamandrei - http://creativecommons.org/licenses/by-sa/2.0/ -->
</svg>


