<?xml version="1.0" encoding="UTF-8" standalone="no"?>
<svg width="48" height="48">
<path id="0" style="fill:#555555;opacity:1;stroke:#000000;stroke-width:1"
d="M 24.8,3.7 C 15.5,3.7 8,6.3 8,9.5 C 8,11.5 9.7,35.7 9.7,37.7 C 9.7,41 15.5,43.627743 24.8,43.5 C 34.2,43.5 40,41 40,37.7 C 40,36 42,11.5 41.8,9.5 C 41.7,6.3 34.2,3.7 24.8,3.7 z" />
<path id="1" style="fill:#D62839;opacity:1;stroke:#000000;stroke-width:1"
d="M 10.1,10.5 L 8.1,4.2 L 12.75,6.8 L 12.125,3.875 L 18.5,-0.75 L 15.5,4.125 L 18.6,7 L 21.6,3.8 L 23.25,7.3 L 25.6,4.6 L 27.8,7.5 L 27.25,4.6 L 23.6,0.6 L 33.75,5 L 32.75,6.6 L 35.5,8.1 L 35.75,5.8 L 40.8,8.6 L 39.3,10.1 L 42.75,13.6 L 40.3,17.1 L 36.1,16.3 L 35.8,21.1 L 34,14.6 L 35.6,12.8 C 32.3,14 30.5,14.5 25.375,14.6 C 19,14.8 10.1,13 10.1,10.5 z" />
</svg>
