<?xml version="1.0" encoding="UTF-8" standalone="no"?>
<svg width="48" height="48">
<path id="1" style="fill:#555555;opacity:1;stroke:#000000;stroke-width:1"
d="M 46,6.4 L 42.8,6.4 C 42.8,6.4 42.7,1.2 42.7,1.2 L 7.7,1.2 C 7.7,1.2 7.6,42.4 7.6,42.4 L 42.7,42.4 L 42.8,21.3 L 46.1,21.3 C 46.1,21.3 46,6.4 46,6.4 z" />
<path id="2" style="fill:#d62839;opacity:1;stroke:#000000;stroke-width:1" d="M 7.6,1.25 L 7.6,42.375 L 36.7,47.5 L 36.7,6.3 L 7.6,1.25 z" />
<path id="3" style="opacity:1;fill:#555555;stroke:none"
d="M 21.4,15.4 C 17.5,14.6 13.5,16.8 12.3,20.4 C 11,24.3 13.3,28.3 17.3,29.4 C 19.3,30 21.2,29.6 22.7,29 L 27.6,34.1 C 27.6,34.1 30.6,31.5 30.6,31.5 C 30.6,31.5 27.3,28.2 25.9,26.4 C 26.4,25.7 26.7,25.3 27,24.5 C 28.2,20.6 26,16.6 21.9,15.5 C 21.7,15.5 21.6,15.4 21.4,15.4 z M 20.8,18.2 C 20.9,18.2 21,18.3 21,18.3 C 23.5,19 24.8,21.3 24,23.7 C 23.3,26 20.7,27.3 18.3,26.6 C 15.8,26 14.5,23.6 15.2,21.3 C 16,19 18.4,17.7 20.8,18.2 z" />
</svg>
