<?xml version="1.0" encoding="UTF-8" standalone="no"?>
<svg width="48" height="48">
<path id="0" style="fill:#555555;stroke:none;opacity:1;" d="M 1,43 L 45,43 L 45,46 L 1,46 L 1,43 z"/>
<path id="1" style="fill:none;stroke:#000000;stroke-width:1;opacity:1;" d="M 1,43 L 45,43 z M 45,46 L 1,46 z"/>
<path id="2" style="fill:#555555;stroke:#000000;stroke-width:1;opacity:1;"
d="M 18.5,36 L 18.5,42 C 18.5,42 12.6,42 12.6,42 C 12.6,42 12.5,47 12.5,47 L 31,47 C 31,47 31,42 31,42 L 26,42 L 26,36.2 C 24.6,34 20.3,34.6 18.5,36 z M 41,5.8 L 38.1,5.8 L 38.1,1.4 C 28,1.4 18,1.3 7.9,1.3 L 7.9,36.8 C 18,36.7 28,36.7 38.1,36.8 L 38.1,18.6 L 41,18.6 C 41,18.6 41,5.8 41,5.8 z"/>
<path id="3" style="fill:#D62839;stroke:#000000;stroke-width:1;opacity:1;" d="M 33,5.7 L 33,41 L 8,36.7 L 8,1.3 L 33,5.7 z"/>
</svg>

