<?xml version="1.0" encoding="UTF-8" standalone="no"?>
<svg width="48" height="48">
<path id="a" style="fill:#555555;opacity:1;stroke:#000000;stroke-width:1" d="M 1.5,15.5 L 4,12.5 L 14,12.5 L 16.5,15.5 L 16.5,39.4 L 1.5,39.4 L 1.5,15.5 z" />
<path id="b" style="fill:#aaaaaa;opacity:1;stroke:#000000;stroke-width:1"
d="M 3.5,16.5 L 14.5,16.5 L 14.5,19.5 L 3.5,19.5 L 3.5,16.5 z M 3.5,22.5 L 14.5,22.5 L 14.5,25.5 L 3.5,25.5 L 3.5,22.5 z M 3.5,29 L 14.5,29 L 14.5,37 L 3.5,37 L 3.5,29 z" />
<path id="e" style="fill:#555555;opacity:1;stroke:#000000;stroke-width:1"
d="M 20.2,36 L 20.2,27 L 23,27 L 23,36 L 20.2,36 z M 16.5,35.3 L 28.6,35.3 L 28.6,38 L 16.5,38 L 16.5,35.3 z M 23.5,36.5 C 23.5,37.6 22.6,38.5 21.5,38.5 C 20.4,38.5 19.5,37.6 19.5,36.5 C 19.5,35.4 20.4,34.5 21.5,34.5 C 22.6,34.5 23.5,35.4 23.5,36.5 z M 25.5,20.5 L 32.5,20.5 L 32.5,24.5 L 25.5,24.5 z M 18.5,7.5 L 39.5,7.5 L 39.5,21.5 L 18.5,21.5 L 18.5,7.5 z M 19.5,23.5 L 38.5,23.5 L 39.5,27.5 L 18.5,27.5 L 19.5,23.5 z" />
<path id="k" style="fill:#aaaaaa;opacity:1;stroke:#000000;stroke-width:1"
d="M 21.5,23.5 L 36.5,23.5 L 37,25.5 L 21,25.5 L 21.5,23.46301 z M 34.5,31.5 L 39.5,31.531279 L 39.5,35.5 L 34.5,35.5 L 34.5,31.5 z M 34.5,31.7 L 39.5,31.7 L 39.5,35.5 L 34.5,35.5 L 34.5,31.7 z" />
<path id="n" style="fill:#555555;opacity:1;stroke:#000000;stroke-width:1"
d="M 26.5,18.5 L 47.5,18.5 L 47.5,32.5 L 26.5,32.5 L 26.5,18.5 z M 27.5,34.5 L 46.5,34.5 L 47.5,38.5 L 26.5,38.5 L 27.5,34.5 z" />
<path id="p" style="fill:#aaaaaa;opacity:1;stroke:#000000;stroke-width:1" d="M 29.5,34.5 L 44.5,34.5 L 45,36.5 L 29,36.5 L 29.5,34.5 z" />
<path id="q" style="fill:#D62839;opacity:1;stroke:#000000;stroke-width:1"
d="M 28.5,20.5 L 45.5,20.5 L 45.5,28.5 L 28.5,28.5 L 28.5,20.5 z M 20.5,9.6 L 37.5,9.6 L 37.5,17.5 L 20.5,17.5 L 20.5,9.5 z" />
<!-- authors: Lapo Calamandrei, Jakub Steiner, Andreas Nilssen -->
</svg>

