<?xml version="1.0" encoding="UTF-8" standalone="no"?>
<svg width="48" height="48">
<rect id="1" style="fill:#aaaaaa;opacity:1;stroke:none" width="46" height="2.8" x="2" y="21.7" r_cy="true" r_cx="true" />
<rect id="2" style="fill:#000000;opacity:1;stroke:none" width="46" height="0.7" x="2" y="23.8" r_cy="true" r_cx="true" />
<rect id="3" style="fill:#000000;opacity:1;stroke:none" width="46" height="0.7" x="2" y="21.5" r_cy="true" r_cx="true" />
<path id="4" style="fill:#aaaaaa;opacity:1;stroke:#000000;stroke-width:1" type="arc" cx="66.013466" cy="26.2" rx="2.2" ry="2.2" r_cx="true" r_cy="true" 
d="M 42.2,23 C 42.2,24.1 41.3,25 40.2,25 C 39.1,25 38.2,24.1 38.2,23 C 38.2,21.9 39.1,21 40.2,21 C 41.3,21 42.2,21.9 42.2,23 z" />
<path id="5" style="fill:#555555;opacity:1;stroke:#000000;stroke-width:1" d="M 14.7,7.3 L 18.1,3 L 32,3 L 35.5,7.3 L 35.5,40.4 L 14.7,40.4 L 14.7,7.3 z" />
<rect id="6" style="fill:#aaaaaa;opacity:1;stroke:#000000;stroke-width:1" y="8.6" x="17.4" height="4.2" width="15.3" />
<rect id="7" style="fill:#aaaaaa;opacity:1;stroke:#000000;stroke-width:1" y="16.9" x="17.4" height="4.2" width="15.3" />
<rect id="8" style="fill:#aaaaaa;opacity:1;stroke:#000000;stroke-width:1" x="17.448704" y="26" height="11.1" width="15.3" />
</svg>
