<?xml version="1.0" encoding="UTF-8" standalone="no"?>
<svg width="48" height="48" id="svg2" version="1.0" >

<path id="u"
style="fill:#555555;fill-opacity:1;stroke:#000000;stroke-miterlimit:4"
d="M 46,6.4 L 42.8,6.4 L 42.8,1.2 L 7.8,1.2 C 7.8,1.2 7.5,42.4 7.5,42.4 L 42.8,42.4 L 42.8,21.3 L 46.1,21.3 C 46.1,21.3 46,6.4 46,6.4 z" />

<path id="q"
style="fill:#DD3344;fill-opacity:1;stroke:#000000;stroke-width:0.99249566;stroke-miterlimit:4"
d="M 36.6,6.3 L 36.6,47.4 L 7.6,42.3 L 7.6,1.2 L 36.6,6.3 z" />

<path id="l"
style="fill:#555555;fill-opacity:1;stroke:none;stroke-miterlimit:4"
d="M 21.3,12.5 L 9.2,22.4 L 13.5,23.2 L 13.5,36.5 L 29.3,39.4 L 29.3,26.1 L 33.6,27 L 21.3,12.5 z M 19.2,29.2 L 23.6,30 L 23.8,37 L 19.2,36.2 L 19.2,29.2 z" />

</svg>
