<?xml version="1.0" encoding="UTF-8" standalone="no"?>
<svg width="48" height="48">
<path id="0" style="fill:#555555;opacity:1;stroke:#000000;stroke-width:1"
d="M 24.8,3.7 C 15.5,3.7 8,6.7 8,10 C 8,10 10,38 10,38 C 10,41.2 15.6,44 25,44 C 34.3,44 40,41.2 40,38 C 40,38 42,10 42,10 C 42,6.7 34.2,3.7 24.8,3.7 z" />
<path id="1" style="fill:#D62839;opacity:1;stroke:#000000;stroke-width:1"
d="M 10.125,10.5 L 8,4 L 12,7 L 12,4 L 18,0 L 15,5 L 18,7 L 21,4 L 23,8 L 25,5 L 27,8 L 27,5 L 23,1 L 33,5 L 32,7 L 35,9 L 35,6 L 41,9 L 39,10 L 43,14 L 40,17 L 36,16 L 36,21 L 34,15 L 35.6,12.8 C 32.3,14 30.4,14.5 25.3,14.6 C 19.1,14.8 10.1,12.9 10.125,10.5 z" />
</svg>

