<?xml version="1.0" encoding="UTF-8" standalone="no"?>
<!-- Created with Inkscape (http://www.inkscape.org/) -->

<svg
   xmlns:dc="http://purl.org/dc/elements/1.1/"
   xmlns:cc="http://creativecommons.org/ns#"
   xmlns:rdf="http://www.w3.org/1999/02/22-rdf-syntax-ns#"
   xmlns:svg="http://www.w3.org/2000/svg"
   xmlns="http://www.w3.org/2000/svg"
   xmlns:sodipodi="http://sodipodi.sourceforge.net/DTD/sodipodi-0.dtd"
   xmlns:inkscape="http://www.inkscape.org/namespaces/inkscape"
   id="svg7384"
   sodipodi:docname="mail-outbox-1.svg"
   version="1.1"
   inkscape:version="0.92.3 (2405546, 2018-03-11)"
   height="36"
   width="36">
  <metadata
     id="metadata90">
    <rdf:RDF>
      <cc:Work
         rdf:about="">
        <dc:format>image/svg+xml</dc:format>
        <dc:type
           rdf:resource="http://purl.org/dc/dcmitype/StillImage" />
        <dc:title>Gnome Symbolic Icon Theme</dc:title>
      </cc:Work>
    </rdf:RDF>
  </metadata>
  <sodipodi:namedview
     inkscape:cy="3.8191956"
     pagecolor="#ffffff"
     borderopacity="1"
     showborder="true"
     inkscape:bbox-paths="false"
     guidetolerance="10"
     inkscape:window-width="1920"
     showguides="true"
     inkscape:object-nodes="true"
     inkscape:snap-bbox="true"
     inkscape:pageshadow="2"
     inkscape:guide-bbox="true"
     inkscape:snap-nodes="true"
     bordercolor="#666666"
     objecttolerance="10"
     id="namedview88"
     showgrid="true"
     inkscape:window-maximized="1"
     inkscape:window-x="0"
     inkscape:snap-global="true"
     inkscape:window-y="0"
     gridtolerance="10"
     inkscape:window-height="1020"
     inkscape:snap-to-guides="true"
     inkscape:current-layer="layer13"
     inkscape:zoom="7.9999999"
     inkscape:cx="23.43706"
     inkscape:snap-grids="true"
     inkscape:pageopacity="1">
    <inkscape:grid
       spacingx="1"
       spacingy="1"
       id="grid4866"
       empspacing="2"
       enabled="true"
       type="xygrid"
       snapvisiblegridlinesonly="true"
       visible="true"
       originx="0"
       originy="0" />
  </sodipodi:namedview>
  <title
     id="title9167">Gnome Symbolic Icon Theme</title>
  <defs
     id="defs7386" />
  <g
     inkscape:label="status"
     transform="translate(-442,-156)"
     inkscape:groupmode="layer"
     id="layer9"
     style="display:inline" />
  <g
     inkscape:label="devices"
     transform="translate(-442,-156)"
     inkscape:groupmode="layer"
     id="layer10" />
  <g
     inkscape:label="apps"
     transform="translate(-442,-156)"
     inkscape:groupmode="layer"
     id="layer11" />
  <g
     inkscape:label="actions"
     transform="translate(-442,-156)"
     inkscape:groupmode="layer"
     id="layer12" />
  <g
     inkscape:label="places"
     transform="translate(-442,-156)"
     inkscape:groupmode="layer"
     id="layer13">
    <path
       style="opacity:0.75;fill:#000000;fill-opacity:1;stroke:none"
       d="M 9.109375 6 C 9.1002752 6 9.0930244 6.0056202 9.0839844 6.0058594 C 7.9204208 6.0340034 6.7583177 7.2425148 6 8.125 L 0.56445312 14.451172 C 0.17565312 14.839972 0 15.21506 0 15.875 L 0 28.875 C 0 30.05225 0.94775 31 2.125 31 L 33.875 31 C 35.05225 31 36 30.05225 36 28.875 L 36 16.21875 C 36 15.68625 35.833328 15.344501 35.580078 14.988281 L 30 8.125 C 29.25737 7.21154 28.036635 6 26.859375 6 L 26.722656 6 L 26.236328 6 L 22 6 L 22 8.0039062 L 26.722656 8.0039062 C 26.748335 8.0039062 26.769741 7.9901641 26.794922 7.9882812 C 26.794827 7.9921817 26.795029 7.9960997 26.794922 8 L 26.900391 8 C 27.491731 8 27.961451 8.3548085 28.332031 8.7929688 L 32.912109 14.634766 C 33.718309 15.551446 33.587938 16 32.554688 16 L 25.5 16 L 23.5 16 C 23.5 19.03757 21.03757 21.5 18 21.5 C 14.96243 21.5 12.5 19.03757 12.5 16 L 10.5 16 L 3.0410156 16 C 2.4496756 16 2.12398 15.476214 2.9375 14.496094 L 7.46875 9.0351562 C 8.0069723 8.3867169 8.682937 8.074832 9.2285156 8.0039062 L 14 8.0039062 L 14 6 L 9.7636719 6 L 9.125 6 L 9.109375 6 z M 2 18 L 10.779297 18 C 10.977207 18.71453 11.279984 19.395774 11.677734 20.021484 L 11.683594 20.03125 C 11.819644 20.24359 11.966307 20.448924 12.123047 20.646484 C 12.282837 20.849134 12.452993 21.043406 12.632812 21.228516 C 12.805344 21.405996 12.986561 21.574815 13.175781 21.734375 C 13.366141 21.893855 13.564301 22.043774 13.769531 22.183594 C 13.925651 22.293844 14.08592 22.398084 14.25 22.496094 C 14.40339 22.581594 14.55973 22.661768 14.71875 22.736328 L 14.724609 22.740234 C 14.847409 22.799634 14.971796 22.855613 15.097656 22.908203 L 15.101562 22.910156 C 15.203524 22.952756 15.306416 22.993156 15.410156 23.03125 L 15.416016 23.033203 C 15.544356 23.080303 15.673966 23.124004 15.804688 23.164062 C 15.909485 23.196362 16.014984 23.226306 16.121094 23.253906 L 16.128906 23.255859 C 16.264716 23.290959 16.401492 23.322209 16.539062 23.349609 C 16.644772 23.370109 16.750932 23.388297 16.857422 23.404297 C 16.988452 23.425397 17.119993 23.442931 17.251953 23.457031 C 17.376703 23.469231 17.501743 23.478475 17.626953 23.484375 L 17.640625 23.484375 C 17.755765 23.490375 17.871028 23.493141 17.986328 23.494141 L 18 23.494141 C 18.12898 23.493561 18.257929 23.490142 18.386719 23.482422 C 18.502119 23.477422 18.617382 23.469384 18.732422 23.458984 C 19.605762 23.372984 20.457207 23.134296 21.248047 22.753906 L 21.263672 22.746094 C 21.428762 22.668694 21.59099 22.585304 21.75 22.496094 C 22.01062 22.342784 22.261723 22.173854 22.501953 21.990234 C 22.615803 21.904234 22.727176 21.815006 22.835938 21.722656 C 23.986628 20.748962 24.817883 19.45231 25.220703 18 L 34 18 L 34 27.935547 C 33.99937 28.524977 33.525187 29 32.935547 29 L 3.0644531 29 C 2.4748131 29 2 28.525187 2 27.935547 L 2 18 z "
       transform="translate(442,156)"
       id="rect4166" />
    <path
       inkscape:connector-curvature="0"
       style="opacity:0.5;fill:#000000;fill-opacity:1;stroke:none"
       d="m 444,174 0,9.93555 c 0,0.58964 0.47481,1.06445 1.06445,1.06445 l 29.8711,0 C 475.52519,185 476,184.52519 476,183.93555 L 476,174 l -8.78125,0 a 7.5,7.5 0 0 1 -3.46875,4.49609 7.5,7.5 0 0 1 -7.5,0 A 7.5,7.5 0 0 1 452.7793,174 L 444,174 Z"
       id="rect4168" />
    <path
       style="opacity:0.75;fill:#000000;fill-opacity:1;stroke:none"
       d="m 460,174.41406 c -0.38343,0 -0.76674,-0.1476 -1.06055,-0.4414 l -5.30273,-5.30274 c -0.58761,-0.5876 -0.58761,-1.53349 0,-2.12109 0.5876,-0.58761 1.53349,-0.58761 2.12109,0 l 2.74219,2.74219 v -10.69141 c 0,-0.831 0.669,-1.5 1.5,-1.5 0.831,0 1.5,0.669 1.5,1.5 v 10.69141 l 2.74219,-2.74219 c 0.5876,-0.58761 1.53349,-0.58761 2.12109,0 0.58761,0.5876 0.58761,1.53349 0,2.12109 l -5.30273,5.30274 c -0.29381,0.2938 -0.67712,0.4414 -1.06055,0.4414 z"
       id="rect4232"
       inkscape:connector-curvature="0" />
  </g>
  <g
     inkscape:label="mimetypes"
     transform="translate(-442,-156)"
     inkscape:groupmode="layer"
     id="layer14" />
  <g
     inkscape:label="emblems"
     transform="translate(-442,-156)"
     inkscape:groupmode="layer"
     id="layer15"
     style="display:inline" />
</svg>
